<svg xmlns="http://www.w3.org/2000/svg" viewBox="0 0 32 32" width="32" height="32">
  <rect width="32" height="32" rx="6" fill="#1a1714"/>
  <g transform="translate(2, 8) scale(0.45)"><svg xmlns="http://www.w3.org/2000/svg" xmlns:xlink="http://www.w3.org/1999/xlink" width="80" zoomAndPan="magnify" viewBox="0 0 60 30.000001" height="40" preserveAspectRatio="xMidYMid meet" version="1.0"><defs><g/><clipPath id="ed68f45eec"><path d="M 20 3 L 40.753906 3 L 40.753906 11 L 20 11 Z M 20 3 " clip-rule="nonzero"/></clipPath><clipPath id="b18755a1bf"><path d="M 19 2.203125 L 39 2.203125 L 39 11.636719 L 19 11.636719 Z M 19 2.203125 " clip-rule="nonzero"/></clipPath><clipPath id="dc9f94f598"><path d="M 21 2.203125 L 40.753906 2.203125 L 40.753906 11.636719 L 21 11.636719 Z M 21 2.203125 " clip-rule="nonzero"/></clipPath><clipPath id="4983da8de8"><path d="M 0.1875 1 L 8 1 L 8 8 L 0.1875 8 Z M 0.1875 1 " clip-rule="nonzero"/></clipPath><clipPath id="c62a104782"><path d="M 8 1 L 16 1 L 16 8.507812 L 8 8.507812 Z M 8 1 " clip-rule="nonzero"/></clipPath><clipPath id="064f0fb293"><path d="M 15 1 L 23 1 L 23 8.507812 L 15 8.507812 Z M 15 1 " clip-rule="nonzero"/></clipPath><clipPath id="0e6f8ea050"><path d="M 23 1 L 30 1 L 30 8.507812 L 23 8.507812 Z M 23 1 " clip-rule="nonzero"/></clipPath><clipPath id="97cc14f658"><path d="M 31 1 L 37.8125 1 L 37.8125 8 L 31 8 Z M 31 1 " clip-rule="nonzero"/></clipPath><clipPath id="698c67c35b"><rect x="0" width="38" y="0" height="9"/></clipPath><clipPath id="a401b5b305"><path d="M 0.0820312 0.136719 L 2 0.136719 L 2 2 L 0.0820312 2 Z M 0.0820312 0.136719 " clip-rule="nonzero"/></clipPath><clipPath id="7432f5bba2"><path d="M 1 0.136719 L 4 0.136719 L 4 2 L 1 2 Z M 1 0.136719 " clip-rule="nonzero"/></clipPath><clipPath id="f870e1e5a4"><path d="M 3 0.136719 L 5 0.136719 L 5 2 L 3 2 Z M 3 0.136719 " clip-rule="nonzero"/></clipPath><clipPath id="1afa110e98"><path d="M 4 0.136719 L 6 0.136719 L 6 2 L 4 2 Z M 4 0.136719 " clip-rule="nonzero"/></clipPath><clipPath id="d990cc991f"><path d="M 5 0.136719 L 8 0.136719 L 8 2 L 5 2 Z M 5 0.136719 " clip-rule="nonzero"/></clipPath><clipPath id="54335ad852"><path d="M 7 0.136719 L 9 0.136719 L 9 2 L 7 2 Z M 7 0.136719 " clip-rule="nonzero"/></clipPath><clipPath id="3573868643"><path d="M 8 0.136719 L 11 0.136719 L 11 2 L 8 2 Z M 8 0.136719 " clip-rule="nonzero"/></clipPath><clipPath id="f50d9c967c"><path d="M 11 0.136719 L 12 0.136719 L 12 2 L 11 2 Z M 11 0.136719 " clip-rule="nonzero"/></clipPath><clipPath id="002f878e14"><path d="M 11 0.136719 L 14 0.136719 L 14 2 L 11 2 Z M 11 0.136719 " clip-rule="nonzero"/></clipPath><clipPath id="c2ee8627c7"><path d="M 14 0.136719 L 16 0.136719 L 16 2 L 14 2 Z M 14 0.136719 " clip-rule="nonzero"/></clipPath><clipPath id="2eb9d2688a"><path d="M 15 0.136719 L 18 0.136719 L 18 2 L 15 2 Z M 15 0.136719 " clip-rule="nonzero"/></clipPath><clipPath id="10afdd8217"><path d="M 17 0.136719 L 19 0.136719 L 19 2 L 17 2 Z M 17 0.136719 " clip-rule="nonzero"/></clipPath><clipPath id="f05af7489f"><path d="M 18 0.136719 L 21 0.136719 L 21 2 L 18 2 Z M 18 0.136719 " clip-rule="nonzero"/></clipPath><clipPath id="7fdf7b2f29"><path d="M 20 0.136719 L 21.917969 0.136719 L 21.917969 2 L 20 2 Z M 20 0.136719 " clip-rule="nonzero"/></clipPath><clipPath id="e830b949a8"><rect x="0" width="22" y="0" height="6"/></clipPath></defs><path fill="#f8f9f0" d="M 28.585938 5.890625 C 28.679688 5.890625 28.753906 5.832031 28.90625 5.714844 L 28.972656 5.664062 L 28.910156 5.605469 C 28.375 5.089844 27.792969 4.636719 27.183594 4.257812 C 25.753906 3.359375 24.441406 3.027344 23.132812 3.226562 C 21.902344 3.414062 20.933594 4.074219 20.402344 5.078125 C 19.855469 6.109375 19.835938 7.375 20.351562 8.457031 C 20.949219 9.722656 22.25 10.503906 23.738281 10.503906 C 23.945312 10.503906 24.148438 10.492188 24.351562 10.460938 C 25.464844 10.304688 26.507812 9.910156 27.535156 9.253906 L 28.285156 8.78125 C 29.941406 7.726562 31.660156 6.632812 33.332031 5.535156 C 34.316406 4.886719 35.214844 4.546875 36.152344 4.460938 C 36.222656 4.457031 36.285156 4.453125 36.355469 4.453125 C 37.054688 4.453125 37.71875 4.773438 38.175781 5.324219 C 38.628906 5.875 38.816406 6.585938 38.683594 7.269531 C 38.457031 8.445312 37.519531 9.207031 36.296875 9.207031 C 36.125 9.207031 35.949219 9.191406 35.773438 9.160156 C 34.675781 8.964844 33.636719 8.464844 32.589844 7.628906 C 32.460938 7.527344 32.375 7.464844 32.28125 7.464844 C 32.175781 7.464844 32.085938 7.546875 31.957031 7.679688 L 31.898438 7.738281 L 32.214844 7.980469 C 32.433594 8.144531 32.652344 8.3125 32.878906 8.472656 C 33.890625 9.191406 34.964844 9.605469 36.074219 9.695312 C 36.996094 9.765625 37.886719 9.433594 38.480469 8.800781 C 39.011719 8.222656 39.273438 7.4375 39.210938 6.589844 C 39.105469 5.113281 37.851562 3.957031 36.355469 3.957031 C 36.253906 3.957031 36.148438 3.964844 36.042969 3.976562 C 35.121094 4.074219 34.269531 4.367188 33.503906 4.847656 C 32.496094 5.476562 31.480469 6.132812 30.5 6.765625 C 29.863281 7.175781 29.226562 7.585938 28.585938 7.992188 C 28.417969 8.097656 28.25 8.207031 28.082031 8.320312 C 27.445312 8.734375 26.789062 9.164062 26.078125 9.46875 C 24.914062 9.957031 23.996094 10.097656 23.113281 9.949219 C 21.574219 9.679688 20.523438 8.453125 20.503906 6.894531 C 20.484375 5.285156 21.445312 4.082031 23.019531 3.746094 C 23.269531 3.691406 23.527344 3.667969 23.785156 3.667969 C 24.355469 3.667969 24.945312 3.789062 25.644531 4.050781 C 26.65625 4.421875 27.507812 5.070312 28.277344 5.714844 C 28.410156 5.824219 28.488281 5.890625 28.585938 5.890625 Z M 28.585938 5.890625 " fill-opacity="1" fill-rule="nonzero"/><g clip-path="url(#ed68f45eec)"><path fill="#f8f9f0" d="M 35.300781 9.875 C 34.140625 9.621094 33.058594 9.046875 31.894531 8.070312 C 31.761719 7.957031 31.6875 7.894531 31.59375 7.894531 C 31.5 7.894531 31.421875 7.953125 31.265625 8.082031 L 31.195312 8.132812 L 31.421875 8.332031 C 31.503906 8.398438 31.578125 8.464844 31.660156 8.53125 C 32.988281 9.648438 34.332031 10.277344 35.765625 10.460938 C 35.949219 10.484375 36.132812 10.496094 36.316406 10.496094 C 38.199219 10.496094 39.742188 9.171875 39.992188 7.347656 C 40.136719 6.289062 39.816406 5.222656 39.113281 4.414062 C 38.308594 3.492188 37.105469 3.027344 35.875 3.1875 C 34.75 3.339844 33.671875 3.753906 32.675781 4.414062 C 31.519531 5.1875 30.328125 5.945312 29.171875 6.679688 C 28.449219 7.136719 27.722656 7.597656 27.003906 8.0625 C 26.335938 8.496094 25.746094 8.785156 25.152344 8.964844 C 24.742188 9.085938 24.253906 9.210938 23.757812 9.210938 C 23.523438 9.210938 23.304688 9.183594 23.089844 9.128906 C 22.097656 8.882812 21.449219 8.152344 21.304688 7.128906 C 21.167969 6.179688 21.636719 5.261719 22.492188 4.789062 C 23.097656 4.453125 23.757812 4.371094 24.582031 4.554688 C 25.789062 4.8125 26.769531 5.503906 27.566406 6.148438 C 27.707031 6.257812 27.78125 6.320312 27.875 6.320312 C 27.96875 6.320312 28.042969 6.261719 28.203125 6.148438 L 28.269531 6.09375 L 28.207031 6.035156 C 27.941406 5.785156 27.652344 5.558594 27.378906 5.355469 C 26.183594 4.460938 25.089844 4.019531 23.941406 3.96875 C 23.699219 3.957031 23.507812 4.046875 23.285156 4.078125 C 23.25 4.082031 23.210938 4.085938 23.175781 4.09375 C 22.757812 4.167969 22.386719 4.316406 22.058594 4.542969 C 22.011719 4.570312 21.964844 4.605469 21.925781 4.640625 C 21.757812 4.769531 21.558594 4.847656 21.414062 5.019531 C 20.671875 5.910156 20.566406 7.261719 21.160156 8.300781 C 21.644531 9.152344 22.683594 9.71875 23.742188 9.71875 C 23.875 9.71875 24.003906 9.710938 24.132812 9.691406 C 25.160156 9.554688 26.15625 9.1875 27.09375 8.59375 C 28.0625 7.988281 29.039062 7.359375 29.984375 6.753906 C 30.597656 6.359375 31.210938 5.964844 31.824219 5.574219 C 32.015625 5.453125 32.210938 5.324219 32.398438 5.195312 C 32.917969 4.84375 33.457031 4.484375 34.042969 4.230469 C 34.679688 3.949219 35.441406 3.664062 36.257812 3.664062 C 36.445312 3.664062 36.636719 3.679688 36.816406 3.710938 C 38.144531 3.933594 39.027344 4.699219 39.363281 5.917969 C 39.734375 7.257812 39.425781 8.371094 38.441406 9.234375 C 37.617188 9.953125 36.617188 10.167969 35.300781 9.875 Z M 35.300781 9.875 " fill-opacity="1" fill-rule="nonzero"/></g><g clip-path="url(#b18755a1bf)"><path fill="#f8f9f0" d="M 36.332031 5.257812 C 36.359375 5.257812 36.390625 5.257812 36.425781 5.257812 C 36.90625 5.269531 37.347656 5.503906 37.636719 5.886719 C 37.925781 6.277344 38.019531 6.769531 37.890625 7.246094 C 37.691406 7.976562 37.085938 8.414062 36.269531 8.414062 C 36.144531 8.414062 36.015625 8.402344 35.886719 8.382812 C 34.824219 8.214844 33.976562 7.675781 33.289062 7.171875 C 33.25 7.144531 33.21875 7.121094 33.191406 7.101562 C 33.105469 7.03125 33.054688 6.992188 32.988281 6.992188 C 32.914062 6.992188 32.855469 7.039062 32.738281 7.128906 L 32.554688 7.265625 L 32.636719 7.320312 C 32.726562 7.390625 32.820312 7.457031 32.910156 7.523438 C 33.117188 7.679688 33.3125 7.824219 33.519531 7.957031 C 34.367188 8.511719 35.21875 8.820312 36.125 8.910156 C 36.203125 8.917969 36.277344 8.921875 36.355469 8.921875 C 37.011719 8.921875 37.617188 8.632812 38.011719 8.125 C 38.410156 7.621094 38.550781 6.960938 38.390625 6.320312 C 38.160156 5.375 37.324219 4.742188 36.308594 4.742188 C 36.164062 4.742188 36.015625 4.757812 35.867188 4.785156 C 35.085938 4.925781 34.320312 5.242188 33.527344 5.753906 C 32.921875 6.140625 32.316406 6.527344 31.710938 6.921875 C 30.804688 7.503906 29.890625 8.09375 28.980469 8.671875 C 28.808594 8.785156 28.636719 8.894531 28.464844 9.007812 C 27.855469 9.40625 27.230469 9.816406 26.558594 10.121094 C 25.316406 10.6875 24.21875 10.890625 23.160156 10.746094 C 21.269531 10.492188 19.886719 9.046875 19.722656 7.152344 C 19.550781 5.164062 20.875 3.375 22.804688 2.980469 C 23.933594 2.761719 25.078125 2.921875 26.359375 3.496094 C 27.152344 3.851562 27.914062 4.359375 28.820312 5.148438 C 28.839844 5.164062 28.855469 5.175781 28.871094 5.191406 C 28.933594 5.25 29 5.316406 29.117188 5.351562 L 29.226562 5.386719 L 29.210938 5.269531 C 29.199219 5.214844 29.207031 5.160156 29.210938 5.097656 C 29.226562 4.976562 29.246094 4.824219 29.089844 4.699219 C 28.5625 4.269531 27.902344 3.730469 27.175781 3.339844 C 25.558594 2.46875 24.121094 2.199219 22.71875 2.503906 C 21.273438 2.816406 20.164062 3.65625 19.597656 4.875 C 19.003906 6.136719 19.042969 7.691406 19.695312 8.9375 C 20.457031 10.402344 21.980469 11.277344 23.765625 11.277344 C 23.984375 11.277344 24.207031 11.265625 24.429688 11.238281 C 25.636719 11.101562 26.804688 10.660156 27.996094 9.902344 C 28.578125 9.527344 29.164062 9.160156 29.746094 8.789062 C 31.152344 7.894531 32.605469 6.972656 34.023438 6.046875 C 34.847656 5.507812 35.582031 5.257812 36.332031 5.257812 Z M 23.738281 2.8125 C 23.726562 2.8125 23.714844 2.8125 23.703125 2.8125 C 23.714844 2.8125 23.726562 2.8125 23.738281 2.8125 Z M 23.738281 2.8125 " fill-opacity="1" fill-rule="nonzero"/></g><g clip-path="url(#dc9f94f598)"><path fill="#f8f9f0" d="M 40.558594 5.601562 C 40.550781 5.578125 40.546875 5.554688 40.539062 5.535156 C 39.972656 3.683594 38.378906 2.386719 36.347656 2.386719 C 36.144531 2.386719 35.941406 2.398438 35.738281 2.425781 C 34.558594 2.574219 33.425781 2.996094 32.292969 3.714844 C 32.039062 3.875 31.796875 4.058594 31.5625 4.230469 C 31.285156 4.4375 31 4.652344 30.695312 4.832031 C 29.328125 5.644531 27.910156 6.527344 26.351562 7.53125 C 25.59375 8.019531 24.921875 8.289062 24.226562 8.375 C 24.023438 8.402344 23.859375 8.417969 23.707031 8.417969 C 23.3125 8.417969 23 8.328125 22.730469 8.132812 C 22.160156 7.726562 21.933594 7.058594 22.136719 6.390625 C 22.332031 5.746094 22.945312 5.277344 23.628906 5.253906 C 23.671875 5.253906 23.714844 5.25 23.757812 5.25 C 24.515625 5.25 25.261719 5.503906 26.09375 6.050781 C 26.417969 6.261719 26.714844 6.484375 26.980469 6.707031 C 27.050781 6.765625 27.117188 6.792969 27.183594 6.792969 C 27.296875 6.792969 27.378906 6.707031 27.433594 6.644531 L 27.457031 6.621094 C 27.5 6.574219 27.515625 6.527344 27.507812 6.480469 C 27.492188 6.414062 27.421875 6.378906 27.371094 6.351562 C 27.355469 6.34375 27.335938 6.335938 27.332031 6.332031 C 26.832031 5.914062 26.394531 5.609375 25.960938 5.375 C 25.171875 4.949219 24.476562 4.75 23.777344 4.75 C 23.691406 4.75 23.601562 4.753906 23.511719 4.761719 C 22.898438 4.804688 22.339844 5.113281 21.972656 5.601562 C 21.605469 6.09375 21.472656 6.71875 21.601562 7.320312 C 21.808594 8.28125 22.664062 8.925781 23.730469 8.925781 C 23.804688 8.925781 23.886719 8.921875 23.964844 8.914062 C 24.804688 8.835938 25.59375 8.578125 26.304688 8.140625 C 27.484375 7.414062 28.667969 6.65625 29.816406 5.925781 L 30.816406 5.289062 C 31.085938 5.117188 31.355469 4.9375 31.621094 4.757812 C 32.289062 4.308594 32.984375 3.847656 33.726562 3.503906 C 34.847656 2.988281 35.832031 2.792969 36.773438 2.914062 C 37.945312 3.054688 38.949219 3.632812 39.589844 4.542969 C 40.242188 5.464844 40.449219 6.640625 40.171875 7.84375 C 39.769531 9.601562 38.226562 10.785156 36.335938 10.785156 C 36.128906 10.785156 35.917969 10.769531 35.710938 10.742188 C 34.4375 10.574219 33.261719 10.082031 32.117188 9.242188 C 31.878906 9.066406 31.652344 8.878906 31.417969 8.679688 C 31.316406 8.59375 31.21875 8.511719 31.113281 8.425781 L 31.023438 8.351562 L 30.996094 8.464844 C 30.914062 8.796875 30.980469 9.011719 31.222656 9.207031 C 32.273438 10.050781 33.300781 10.621094 34.363281 10.953125 C 35.070312 11.171875 35.714844 11.28125 36.328125 11.28125 C 36.730469 11.28125 37.132812 11.230469 37.511719 11.136719 C 39.644531 10.609375 40.996094 8.691406 40.796875 6.472656 C 40.769531 6.15625 40.640625 5.890625 40.558594 5.601562 Z M 40.558594 5.601562 " fill-opacity="1" fill-rule="nonzero"/></g><g transform="matrix(1, 0, 0, 1, 11, 11)"><g clip-path="url(#698c67c35b)"><g clip-path="url(#4983da8de8)"><g fill="#f8f9f0" fill-opacity="1"><g transform="translate(0.398831, 7.443161)"><g><path d="M 3.8125 -3.546875 L 5.71875 -3.546875 C 5.75 -3.597656 5.773438 -3.632812 5.796875 -3.65625 C 5.816406 -3.675781 5.859375 -3.722656 5.921875 -3.796875 C 5.960938 -3.847656 5.988281 -3.882812 6 -3.90625 C 6.019531 -3.925781 6.0625 -3.976562 6.125 -4.0625 C 6.207031 -4.15625 6.28125 -4.203125 6.34375 -4.203125 C 6.394531 -4.203125 6.460938 -4.175781 6.546875 -4.125 C 6.640625 -4.070312 6.734375 -4.003906 6.828125 -3.921875 C 6.921875 -3.847656 7 -3.769531 7.0625 -3.6875 C 7.125 -3.613281 7.15625 -3.554688 7.15625 -3.515625 C 7.15625 -3.453125 7.128906 -3.410156 7.078125 -3.390625 C 7.035156 -3.367188 6.953125 -3.359375 6.828125 -3.359375 L 3.71875 -3.359375 C 3.625 -3.179688 3.539062 -3.039062 3.46875 -2.9375 C 3.40625 -2.832031 3.335938 -2.726562 3.265625 -2.625 C 3.191406 -2.53125 3.09375 -2.40625 2.96875 -2.25 C 2.988281 -2.238281 3.007812 -2.226562 3.03125 -2.21875 C 3.050781 -2.207031 3.078125 -2.191406 3.109375 -2.171875 L 5.109375 -2.171875 C 5.234375 -2.335938 5.320312 -2.441406 5.375 -2.484375 C 5.425781 -2.535156 5.484375 -2.5625 5.546875 -2.5625 C 5.597656 -2.5625 5.6875 -2.523438 5.8125 -2.453125 C 5.945312 -2.390625 6.09375 -2.296875 6.25 -2.171875 C 6.332031 -2.109375 6.390625 -2.054688 6.421875 -2.015625 C 6.453125 -1.984375 6.46875 -1.945312 6.46875 -1.90625 C 6.46875 -1.875 6.457031 -1.84375 6.4375 -1.8125 C 6.414062 -1.789062 6.363281 -1.75 6.28125 -1.6875 C 6.289062 -1.53125 6.296875 -1.390625 6.296875 -1.265625 C 6.296875 -1.140625 6.300781 -1 6.3125 -0.84375 C 6.320312 -0.695312 6.332031 -0.515625 6.34375 -0.296875 C 6.34375 -0.210938 6.34375 -0.144531 6.34375 -0.09375 C 6.351562 -0.0390625 6.359375 0.00390625 6.359375 0.046875 C 6.359375 0.117188 6.347656 0.179688 6.328125 0.234375 C 6.316406 0.285156 6.289062 0.328125 6.25 0.359375 C 6.195312 0.421875 6.109375 0.46875 5.984375 0.5 C 5.867188 0.53125 5.738281 0.546875 5.59375 0.546875 C 5.425781 0.546875 5.316406 0.523438 5.265625 0.484375 C 5.210938 0.441406 5.1875 0.347656 5.1875 0.203125 L 5.1875 0.0625 L 2.953125 0.0625 C 2.953125 0.195312 2.941406 0.285156 2.921875 0.328125 C 2.910156 0.378906 2.863281 0.425781 2.78125 0.46875 C 2.726562 0.488281 2.648438 0.503906 2.546875 0.515625 C 2.453125 0.535156 2.359375 0.546875 2.265625 0.546875 C 2.148438 0.546875 2.066406 0.53125 2.015625 0.5 C 1.960938 0.46875 1.9375 0.40625 1.9375 0.3125 C 1.9375 0.269531 1.9375 0.222656 1.9375 0.171875 C 1.9375 0.117188 1.9375 0.0390625 1.9375 -0.0625 C 1.945312 -0.175781 1.957031 -0.335938 1.96875 -0.546875 C 1.976562 -0.753906 1.992188 -1.035156 2.015625 -1.390625 C 1.804688 -1.222656 1.597656 -1.082031 1.390625 -0.96875 C 1.179688 -0.863281 0.9375 -0.757812 0.65625 -0.65625 C 0.457031 -0.570312 0.316406 -0.53125 0.234375 -0.53125 C 0.203125 -0.53125 0.1875 -0.546875 0.1875 -0.578125 C 0.1875 -0.597656 0.210938 -0.617188 0.265625 -0.640625 C 0.929688 -0.960938 1.519531 -1.503906 2.03125 -2.265625 L 2.03125 -2.390625 C 2.03125 -2.453125 2.050781 -2.484375 2.09375 -2.484375 C 2.125 -2.484375 2.148438 -2.484375 2.171875 -2.484375 C 2.253906 -2.617188 2.332031 -2.757812 2.40625 -2.90625 C 2.488281 -3.050781 2.566406 -3.203125 2.640625 -3.359375 L 1.21875 -3.359375 C 1.007812 -3.359375 0.796875 -3.34375 0.578125 -3.3125 C 0.492188 -3.394531 0.441406 -3.445312 0.421875 -3.46875 C 0.410156 -3.5 0.40625 -3.515625 0.40625 -3.515625 C 0.40625 -3.546875 0.425781 -3.5625 0.46875 -3.5625 C 0.5625 -3.5625 0.660156 -3.554688 0.765625 -3.546875 C 0.867188 -3.546875 0.945312 -3.546875 1 -3.546875 L 2.71875 -3.546875 C 2.800781 -3.773438 2.875 -3.988281 2.9375 -4.1875 C 3.007812 -4.382812 3.050781 -4.519531 3.0625 -4.59375 C 3.0625 -4.625 3.078125 -4.640625 3.109375 -4.640625 C 3.117188 -4.640625 3.140625 -4.640625 3.171875 -4.640625 C 3.203125 -4.640625 3.269531 -4.628906 3.375 -4.609375 C 3.707031 -4.535156 3.945312 -4.46875 4.09375 -4.40625 C 4.25 -4.351562 4.328125 -4.289062 4.328125 -4.21875 C 4.328125 -4.175781 4.304688 -4.140625 4.265625 -4.109375 C 4.222656 -4.078125 4.15625 -4.046875 4.0625 -4.015625 C 4.019531 -3.921875 3.976562 -3.835938 3.9375 -3.765625 C 3.90625 -3.703125 3.863281 -3.628906 3.8125 -3.546875 Z M 5.203125 -0.125 L 5.203125 -1.78125 C 5.203125 -1.863281 5.195312 -1.914062 5.1875 -1.9375 C 5.175781 -1.96875 5.144531 -1.984375 5.09375 -1.984375 L 3.09375 -1.984375 C 3 -1.984375 2.953125 -1.878906 2.953125 -1.671875 L 2.953125 -0.125 Z M 5.328125 -5.265625 L 5.859375 -5.265625 C 5.929688 -5.359375 5.976562 -5.421875 6 -5.453125 C 6.03125 -5.492188 6.066406 -5.535156 6.109375 -5.578125 C 6.179688 -5.679688 6.242188 -5.753906 6.296875 -5.796875 C 6.347656 -5.847656 6.394531 -5.875 6.4375 -5.875 C 6.53125 -5.875 6.710938 -5.757812 6.984375 -5.53125 C 7.128906 -5.414062 7.203125 -5.316406 7.203125 -5.234375 C 7.203125 -5.140625 7.125 -5.09375 6.96875 -5.09375 L 5.328125 -5.09375 C 5.335938 -4.988281 5.34375 -4.898438 5.34375 -4.828125 C 5.34375 -4.753906 5.34375 -4.703125 5.34375 -4.671875 C 5.34375 -4.585938 5.332031 -4.523438 5.3125 -4.484375 C 5.300781 -4.441406 5.269531 -4.410156 5.21875 -4.390625 C 5.144531 -4.359375 5.054688 -4.332031 4.953125 -4.3125 C 4.859375 -4.289062 4.753906 -4.28125 4.640625 -4.28125 C 4.546875 -4.28125 4.472656 -4.289062 4.421875 -4.3125 C 4.367188 -4.332031 4.335938 -4.375 4.328125 -4.4375 C 4.316406 -4.507812 4.3125 -4.625 4.3125 -4.78125 L 4.328125 -5.09375 L 2.9375 -5.09375 C 2.9375 -5 2.9375 -4.9375 2.9375 -4.90625 C 2.9375 -4.875 2.941406 -4.8125 2.953125 -4.71875 L 2.953125 -4.640625 C 2.953125 -4.554688 2.941406 -4.492188 2.921875 -4.453125 C 2.910156 -4.421875 2.867188 -4.382812 2.796875 -4.34375 C 2.734375 -4.3125 2.660156 -4.285156 2.578125 -4.265625 C 2.492188 -4.253906 2.398438 -4.25 2.296875 -4.25 C 2.148438 -4.25 2.054688 -4.273438 2.015625 -4.328125 C 1.992188 -4.347656 1.984375 -4.375 1.984375 -4.40625 C 1.984375 -4.4375 1.984375 -4.507812 1.984375 -4.625 L 1.984375 -5.09375 L 1.265625 -5.09375 C 0.992188 -5.09375 0.71875 -5.078125 0.4375 -5.046875 C 0.375 -5.128906 0.335938 -5.179688 0.328125 -5.203125 C 0.316406 -5.234375 0.3125 -5.25 0.3125 -5.25 C 0.3125 -5.28125 0.332031 -5.296875 0.375 -5.296875 C 0.476562 -5.296875 0.585938 -5.289062 0.703125 -5.28125 C 0.816406 -5.269531 0.90625 -5.265625 0.96875 -5.265625 L 1.984375 -5.265625 L 1.984375 -6 C 1.984375 -6.019531 1.984375 -6.035156 1.984375 -6.046875 C 1.984375 -6.066406 1.976562 -6.101562 1.96875 -6.15625 C 1.96875 -6.207031 1.984375 -6.234375 2.015625 -6.234375 C 2.109375 -6.234375 2.238281 -6.222656 2.40625 -6.203125 C 2.570312 -6.179688 2.71875 -6.160156 2.84375 -6.140625 C 3.03125 -6.085938 3.125 -6.03125 3.125 -5.96875 C 3.125 -5.914062 3.0625 -5.851562 2.9375 -5.78125 L 2.9375 -5.265625 L 4.328125 -5.265625 L 4.328125 -5.484375 C 4.328125 -5.609375 4.320312 -5.71875 4.3125 -5.8125 C 4.3125 -5.90625 4.3125 -5.992188 4.3125 -6.078125 L 4.3125 -6.171875 C 4.3125 -6.222656 4.328125 -6.25 4.359375 -6.25 C 4.410156 -6.25 4.484375 -6.242188 4.578125 -6.234375 C 4.679688 -6.222656 4.785156 -6.210938 4.890625 -6.203125 C 5.003906 -6.191406 5.09375 -6.179688 5.15625 -6.171875 C 5.289062 -6.148438 5.382812 -6.125 5.4375 -6.09375 C 5.5 -6.0625 5.53125 -6.019531 5.53125 -5.96875 C 5.53125 -5.9375 5.515625 -5.90625 5.484375 -5.875 C 5.460938 -5.851562 5.410156 -5.816406 5.328125 -5.765625 Z M 5.328125 -5.265625 "/></g></g></g></g><g clip-path="url(#c62a104782)"><g fill="#f8f9f0" fill-opacity="1"><g transform="translate(7.838788, 7.443161)"><g><path d="M 6.96875 -2.53125 L 5.09375 -2.53125 C 5.207031 -2.070312 5.425781 -1.648438 5.75 -1.265625 C 5.894531 -1.109375 6.050781 -0.96875 6.21875 -0.84375 C 6.394531 -0.71875 6.585938 -0.59375 6.796875 -0.46875 C 6.898438 -0.40625 6.988281 -0.351562 7.0625 -0.3125 C 7.144531 -0.269531 7.207031 -0.242188 7.25 -0.234375 C 7.28125 -0.210938 7.296875 -0.195312 7.296875 -0.1875 C 7.296875 -0.175781 7.269531 -0.160156 7.21875 -0.140625 C 7.15625 -0.117188 7.070312 -0.0703125 6.96875 0 C 6.875 0.0625 6.78125 0.132812 6.6875 0.21875 C 6.59375 0.300781 6.515625 0.390625 6.453125 0.484375 C 6.421875 0.523438 6.390625 0.550781 6.359375 0.5625 C 6.335938 0.570312 6.304688 0.578125 6.265625 0.578125 C 6.234375 0.578125 6.179688 0.554688 6.109375 0.515625 C 6.046875 0.484375 5.976562 0.441406 5.90625 0.390625 C 5.832031 0.335938 5.769531 0.285156 5.71875 0.234375 C 5.632812 0.128906 5.550781 0.0234375 5.46875 -0.078125 C 5.394531 -0.191406 5.328125 -0.320312 5.265625 -0.46875 C 5.203125 -0.613281 5.15625 -0.773438 5.125 -0.953125 C 5.09375 -1.128906 5.066406 -1.316406 5.046875 -1.515625 C 5.023438 -1.660156 5.007812 -1.816406 5 -1.984375 C 5 -2.160156 5 -2.34375 5 -2.53125 L 4.953125 -2.53125 C 4.890625 -1.957031 4.773438 -1.484375 4.609375 -1.109375 C 4.441406 -0.742188 4.210938 -0.4375 3.921875 -0.1875 C 3.753906 -0.0390625 3.554688 0.078125 3.328125 0.171875 C 3.109375 0.273438 2.875 0.359375 2.625 0.421875 C 2.550781 0.441406 2.46875 0.457031 2.375 0.46875 C 2.28125 0.476562 2.191406 0.488281 2.109375 0.5 C 2.035156 0.519531 1.984375 0.53125 1.953125 0.53125 C 1.910156 0.53125 1.890625 0.515625 1.890625 0.484375 C 1.890625 0.460938 1.914062 0.445312 1.96875 0.4375 C 2.238281 0.375 2.492188 0.269531 2.734375 0.125 C 2.984375 -0.0078125 3.191406 -0.175781 3.359375 -0.375 C 3.566406 -0.625 3.734375 -0.921875 3.859375 -1.265625 C 3.984375 -1.617188 4.070312 -2.039062 4.125 -2.53125 L 3.1875 -2.53125 C 3.101562 -2.53125 3.015625 -2.523438 2.921875 -2.515625 C 2.835938 -2.515625 2.753906 -2.507812 2.671875 -2.5 C 2.617188 -2.570312 2.585938 -2.617188 2.578125 -2.640625 C 2.566406 -2.660156 2.5625 -2.671875 2.5625 -2.671875 C 2.5625 -2.710938 2.582031 -2.734375 2.625 -2.734375 C 2.675781 -2.722656 2.738281 -2.71875 2.8125 -2.71875 C 2.882812 -2.71875 2.9375 -2.71875 2.96875 -2.71875 L 4.125 -2.71875 C 4.132812 -2.789062 4.140625 -2.867188 4.140625 -2.953125 C 4.140625 -3.046875 4.140625 -3.15625 4.140625 -3.28125 C 4.140625 -3.457031 4.140625 -3.648438 4.140625 -3.859375 C 4.140625 -4.078125 4.132812 -4.375 4.125 -4.75 L 3 -4.75 C 2.945312 -4.75 2.894531 -4.75 2.84375 -4.75 C 2.789062 -4.75 2.734375 -4.742188 2.671875 -4.734375 C 2.617188 -4.804688 2.582031 -4.847656 2.5625 -4.859375 C 2.550781 -4.878906 2.546875 -4.894531 2.546875 -4.90625 C 2.546875 -4.9375 2.566406 -4.953125 2.609375 -4.953125 C 2.679688 -4.953125 2.757812 -4.945312 2.84375 -4.9375 C 2.925781 -4.9375 2.988281 -4.9375 3.03125 -4.9375 L 4.125 -4.9375 C 4.125 -5.039062 4.117188 -5.15625 4.109375 -5.28125 C 4.109375 -5.414062 4.101562 -5.546875 4.09375 -5.671875 C 4.09375 -5.796875 4.09375 -5.898438 4.09375 -5.984375 C 4.09375 -6.078125 4.09375 -6.132812 4.09375 -6.15625 C 4.09375 -6.195312 4.113281 -6.21875 4.15625 -6.21875 C 4.21875 -6.21875 4.3125 -6.207031 4.4375 -6.1875 C 4.570312 -6.175781 4.703125 -6.15625 4.828125 -6.125 C 4.953125 -6.101562 5.046875 -6.082031 5.109375 -6.0625 C 5.242188 -6.03125 5.3125 -5.972656 5.3125 -5.890625 C 5.3125 -5.796875 5.226562 -5.707031 5.0625 -5.625 C 5.050781 -5.539062 5.046875 -5.445312 5.046875 -5.34375 C 5.046875 -5.25 5.046875 -5.113281 5.046875 -4.9375 L 5.796875 -4.9375 C 5.828125 -4.96875 5.851562 -5.003906 5.875 -5.046875 C 5.90625 -5.085938 5.925781 -5.113281 5.9375 -5.125 C 6.019531 -5.25 6.082031 -5.335938 6.125 -5.390625 C 6.164062 -5.441406 6.195312 -5.472656 6.21875 -5.484375 C 6.25 -5.503906 6.28125 -5.515625 6.3125 -5.515625 C 6.351562 -5.515625 6.410156 -5.488281 6.484375 -5.4375 C 6.554688 -5.394531 6.628906 -5.335938 6.703125 -5.265625 C 6.773438 -5.191406 6.835938 -5.117188 6.890625 -5.046875 C 6.941406 -4.984375 6.96875 -4.929688 6.96875 -4.890625 C 6.96875 -4.796875 6.890625 -4.75 6.734375 -4.75 L 5.03125 -4.75 C 5.03125 -4.5625 5.023438 -4.363281 5.015625 -4.15625 C 5.015625 -3.945312 5.007812 -3.75 5 -3.5625 C 5 -3.375 5 -3.222656 5 -3.109375 L 4.96875 -2.71875 L 5.921875 -2.71875 C 6.003906 -2.832031 6.070312 -2.929688 6.125 -3.015625 C 6.175781 -3.097656 6.226562 -3.164062 6.28125 -3.21875 C 6.363281 -3.320312 6.4375 -3.375 6.5 -3.375 C 6.53125 -3.375 6.570312 -3.351562 6.625 -3.3125 C 6.6875 -3.269531 6.75 -3.222656 6.8125 -3.171875 C 6.90625 -3.085938 6.988281 -2.992188 7.0625 -2.890625 C 7.132812 -2.796875 7.171875 -2.71875 7.171875 -2.65625 C 7.171875 -2.570312 7.101562 -2.53125 6.96875 -2.53125 Z M 3.875 -3.4375 C 3.875 -3.289062 3.828125 -3.164062 3.734375 -3.0625 C 3.648438 -2.96875 3.539062 -2.921875 3.40625 -2.921875 C 3.15625 -2.921875 3.03125 -3.066406 3.03125 -3.359375 C 3.019531 -3.617188 2.992188 -3.8125 2.953125 -3.9375 C 2.921875 -4.070312 2.863281 -4.191406 2.78125 -4.296875 C 2.75 -4.328125 2.734375 -4.351562 2.734375 -4.375 C 2.734375 -4.394531 2.75 -4.40625 2.78125 -4.40625 C 2.8125 -4.40625 2.878906 -4.382812 2.984375 -4.34375 C 3.097656 -4.3125 3.195312 -4.273438 3.28125 -4.234375 C 3.675781 -4.046875 3.875 -3.78125 3.875 -3.4375 Z M 6.6875 -4.078125 C 6.6875 -4.046875 6.664062 -4.007812 6.625 -3.96875 C 6.59375 -3.925781 6.519531 -3.882812 6.40625 -3.84375 C 6.238281 -3.6875 6.066406 -3.539062 5.890625 -3.40625 C 5.765625 -3.300781 5.644531 -3.203125 5.53125 -3.109375 C 5.414062 -3.023438 5.328125 -2.96875 5.265625 -2.9375 C 5.210938 -2.90625 5.171875 -2.890625 5.140625 -2.890625 C 5.117188 -2.890625 5.109375 -2.898438 5.109375 -2.921875 C 5.109375 -2.929688 5.113281 -2.941406 5.125 -2.953125 C 5.132812 -2.972656 5.160156 -3.019531 5.203125 -3.09375 C 5.242188 -3.15625 5.289062 -3.257812 5.34375 -3.40625 C 5.394531 -3.550781 5.445312 -3.707031 5.5 -3.875 C 5.539062 -3.988281 5.570312 -4.097656 5.59375 -4.203125 C 5.613281 -4.304688 5.632812 -4.40625 5.65625 -4.5 C 5.664062 -4.539062 5.679688 -4.5625 5.703125 -4.5625 C 5.722656 -4.550781 5.742188 -4.539062 5.765625 -4.53125 C 5.796875 -4.53125 5.832031 -4.523438 5.875 -4.515625 C 6.007812 -4.472656 6.128906 -4.429688 6.234375 -4.390625 C 6.347656 -4.347656 6.441406 -4.304688 6.515625 -4.265625 C 6.566406 -4.234375 6.609375 -4.203125 6.640625 -4.171875 C 6.671875 -4.148438 6.6875 -4.117188 6.6875 -4.078125 Z M 1.453125 -4.171875 L 1.4375 -4.203125 C 1.289062 -4.046875 1.125 -3.898438 0.9375 -3.765625 C 0.757812 -3.628906 0.597656 -3.523438 0.453125 -3.453125 C 0.378906 -3.421875 0.332031 -3.40625 0.3125 -3.40625 C 0.289062 -3.40625 0.28125 -3.414062 0.28125 -3.4375 C 0.28125 -3.457031 0.304688 -3.5 0.359375 -3.5625 C 0.515625 -3.71875 0.660156 -3.894531 0.796875 -4.09375 C 0.929688 -4.300781 1.070312 -4.539062 1.21875 -4.8125 C 1.15625 -4.9375 1.078125 -5.082031 0.984375 -5.25 C 0.898438 -5.425781 0.816406 -5.582031 0.734375 -5.71875 C 0.660156 -5.863281 0.609375 -5.957031 0.578125 -6 C 0.546875 -6.039062 0.53125 -6.066406 0.53125 -6.078125 C 0.53125 -6.109375 0.546875 -6.125 0.578125 -6.125 C 0.597656 -6.125 0.625 -6.109375 0.65625 -6.078125 C 0.738281 -6.003906 0.835938 -5.894531 0.953125 -5.75 C 1.023438 -5.664062 1.097656 -5.570312 1.171875 -5.46875 C 1.253906 -5.375 1.335938 -5.269531 1.421875 -5.15625 C 1.492188 -5.34375 1.550781 -5.515625 1.59375 -5.671875 C 1.644531 -5.835938 1.679688 -5.960938 1.703125 -6.046875 C 1.710938 -6.085938 1.726562 -6.109375 1.75 -6.109375 C 1.769531 -6.109375 1.820312 -6.09375 1.90625 -6.0625 C 1.988281 -6.03125 2.085938 -5.988281 2.203125 -5.9375 C 2.316406 -5.882812 2.421875 -5.835938 2.515625 -5.796875 C 2.609375 -5.753906 2.671875 -5.722656 2.703125 -5.703125 C 2.773438 -5.648438 2.8125 -5.597656 2.8125 -5.546875 C 2.8125 -5.441406 2.710938 -5.363281 2.515625 -5.3125 C 2.453125 -5.21875 2.359375 -5.097656 2.234375 -4.953125 C 2.117188 -4.804688 2 -4.660156 1.875 -4.515625 C 2.007812 -4.222656 2.125 -3.945312 2.21875 -3.6875 C 2.320312 -3.4375 2.398438 -3.164062 2.453125 -2.875 C 2.484375 -2.695312 2.503906 -2.503906 2.515625 -2.296875 C 2.535156 -2.097656 2.546875 -1.878906 2.546875 -1.640625 C 2.546875 -1.484375 2.535156 -1.320312 2.515625 -1.15625 C 2.503906 -0.988281 2.488281 -0.832031 2.46875 -0.6875 C 2.4375 -0.519531 2.398438 -0.382812 2.359375 -0.28125 C 2.328125 -0.175781 2.273438 -0.0703125 2.203125 0.03125 C 1.972656 0.375 1.675781 0.546875 1.3125 0.546875 C 1.195312 0.546875 1.109375 0.53125 1.046875 0.5 C 0.992188 0.46875 0.957031 0.394531 0.9375 0.28125 C 0.925781 0.226562 0.90625 0.171875 0.875 0.109375 C 0.84375 0.046875 0.8125 0 0.78125 -0.03125 C 0.6875 -0.1875 0.597656 -0.304688 0.515625 -0.390625 C 0.484375 -0.421875 0.46875 -0.441406 0.46875 -0.453125 C 0.46875 -0.460938 0.476562 -0.46875 0.5 -0.46875 C 0.519531 -0.46875 0.609375 -0.453125 0.765625 -0.421875 C 0.867188 -0.398438 0.96875 -0.390625 1.0625 -0.390625 C 1.144531 -0.390625 1.222656 -0.410156 1.296875 -0.453125 C 1.378906 -0.492188 1.441406 -0.5625 1.484375 -0.65625 C 1.628906 -1 1.703125 -1.570312 1.703125 -2.375 C 1.566406 -2.144531 1.410156 -1.921875 1.234375 -1.703125 C 1.054688 -1.484375 0.859375 -1.273438 0.640625 -1.078125 C 0.597656 -1.035156 0.554688 -1 0.515625 -0.96875 C 0.472656 -0.9375 0.4375 -0.910156 0.40625 -0.890625 C 0.34375 -0.847656 0.304688 -0.828125 0.296875 -0.828125 C 0.273438 -0.828125 0.265625 -0.835938 0.265625 -0.859375 C 0.265625 -0.867188 0.28125 -0.898438 0.3125 -0.953125 C 0.382812 -1.054688 0.445312 -1.15625 0.5 -1.25 C 0.5625 -1.351562 0.613281 -1.457031 0.65625 -1.5625 C 0.726562 -1.707031 0.789062 -1.835938 0.84375 -1.953125 C 0.894531 -2.078125 0.9375 -2.195312 0.96875 -2.3125 C 1.039062 -2.5625 1.101562 -2.785156 1.15625 -2.984375 C 1.21875 -3.179688 1.269531 -3.375 1.3125 -3.5625 C 1.363281 -3.757812 1.410156 -3.960938 1.453125 -4.171875 Z M 1.453125 -4.171875 "/></g></g></g></g><g clip-path="url(#064f0fb293)"><g fill="#f8f9f0" fill-opacity="1"><g transform="translate(15.278745, 7.443161)"><g><path d="M 3.25 -3.34375 L 5.625 -3.34375 C 5.695312 -3.4375 5.75 -3.503906 5.78125 -3.546875 C 5.8125 -3.585938 5.835938 -3.625 5.859375 -3.65625 C 5.878906 -3.6875 5.898438 -3.722656 5.921875 -3.765625 C 6.023438 -3.910156 6.117188 -3.984375 6.203125 -3.984375 C 6.253906 -3.984375 6.320312 -3.957031 6.40625 -3.90625 C 6.488281 -3.851562 6.570312 -3.785156 6.65625 -3.703125 C 6.75 -3.628906 6.828125 -3.554688 6.890625 -3.484375 C 6.953125 -3.410156 6.984375 -3.347656 6.984375 -3.296875 C 6.984375 -3.210938 6.9375 -3.171875 6.84375 -3.171875 L 5.328125 -3.171875 C 5.347656 -3.148438 5.359375 -3.128906 5.359375 -3.109375 C 5.359375 -3.085938 5.332031 -3.066406 5.28125 -3.046875 C 5.257812 -3.046875 5.242188 -3.035156 5.234375 -3.015625 C 5.222656 -2.992188 5.210938 -2.957031 5.203125 -2.90625 C 5.210938 -2.570312 5.21875 -2.3125 5.21875 -2.125 C 5.21875 -1.9375 5.21875 -1.785156 5.21875 -1.671875 C 5.226562 -1.566406 5.234375 -1.460938 5.234375 -1.359375 C 5.242188 -1.160156 5.25 -1.019531 5.25 -0.9375 C 5.25 -0.851562 5.25 -0.789062 5.25 -0.75 C 5.257812 -0.71875 5.265625 -0.679688 5.265625 -0.640625 L 5.265625 -0.5625 C 5.265625 -0.40625 5.164062 -0.296875 4.96875 -0.234375 C 4.894531 -0.210938 4.8125 -0.191406 4.71875 -0.171875 C 4.632812 -0.160156 4.5625 -0.15625 4.5 -0.15625 C 4.300781 -0.15625 4.203125 -0.222656 4.203125 -0.359375 C 4.203125 -0.398438 4.203125 -0.476562 4.203125 -0.59375 C 4.210938 -0.71875 4.21875 -0.84375 4.21875 -0.96875 C 4.226562 -1.164062 4.234375 -1.363281 4.234375 -1.5625 C 4.242188 -1.757812 4.25 -1.9375 4.25 -2.09375 C 4.257812 -2.257812 4.265625 -2.390625 4.265625 -2.484375 C 4.265625 -2.628906 4.265625 -2.753906 4.265625 -2.859375 C 4.265625 -2.972656 4.257812 -3.078125 4.25 -3.171875 L 3.25 -3.171875 C 3.25 -2.734375 3.226562 -2.390625 3.1875 -2.140625 C 3.15625 -1.898438 3.097656 -1.679688 3.015625 -1.484375 C 2.816406 -1.003906 2.503906 -0.632812 2.078125 -0.375 C 2.003906 -0.320312 1.925781 -0.273438 1.84375 -0.234375 C 1.757812 -0.203125 1.707031 -0.1875 1.6875 -0.1875 C 1.664062 -0.1875 1.65625 -0.195312 1.65625 -0.21875 C 1.65625 -0.226562 1.65625 -0.234375 1.65625 -0.234375 C 1.664062 -0.242188 1.6875 -0.265625 1.71875 -0.296875 C 1.800781 -0.347656 1.878906 -0.425781 1.953125 -0.53125 C 2.035156 -0.632812 2.101562 -0.75 2.15625 -0.875 C 2.207031 -1.007812 2.25 -1.148438 2.28125 -1.296875 C 2.3125 -1.441406 2.332031 -1.617188 2.34375 -1.828125 C 2.351562 -2.035156 2.359375 -2.296875 2.359375 -2.609375 C 2.359375 -2.722656 2.351562 -2.960938 2.34375 -3.328125 C 2.34375 -3.703125 2.335938 -4.203125 2.328125 -4.828125 L 2.328125 -4.859375 C 2.328125 -4.898438 2.34375 -4.921875 2.375 -4.921875 C 2.382812 -4.921875 2.40625 -4.914062 2.4375 -4.90625 C 2.46875 -4.90625 2.523438 -4.894531 2.609375 -4.875 C 3.066406 -4.789062 3.347656 -4.691406 3.453125 -4.578125 C 3.640625 -4.617188 3.820312 -4.664062 4 -4.71875 C 4.175781 -4.78125 4.363281 -4.859375 4.5625 -4.953125 C 4.769531 -5.054688 5.015625 -5.175781 5.296875 -5.3125 C 5.328125 -5.332031 5.347656 -5.34375 5.359375 -5.34375 C 5.367188 -5.34375 5.410156 -5.320312 5.484375 -5.28125 C 5.554688 -5.238281 5.640625 -5.1875 5.734375 -5.125 C 5.835938 -5.070312 5.929688 -5.015625 6.015625 -4.953125 C 6.097656 -4.898438 6.160156 -4.851562 6.203125 -4.8125 C 6.296875 -4.726562 6.34375 -4.660156 6.34375 -4.609375 C 6.34375 -4.492188 6.269531 -4.4375 6.125 -4.4375 C 6.101562 -4.4375 6.066406 -4.4375 6.015625 -4.4375 C 5.972656 -4.4375 5.921875 -4.441406 5.859375 -4.453125 C 5.628906 -4.441406 5.378906 -4.429688 5.109375 -4.421875 C 4.835938 -4.410156 4.566406 -4.398438 4.296875 -4.390625 C 4.035156 -4.390625 3.800781 -4.390625 3.59375 -4.390625 L 3.40625 -4.390625 C 3.351562 -4.367188 3.320312 -4.351562 3.3125 -4.34375 C 3.300781 -4.34375 3.289062 -4.328125 3.28125 -4.296875 C 3.269531 -4.273438 3.257812 -4.203125 3.25 -4.078125 C 3.25 -3.960938 3.25 -3.765625 3.25 -3.484375 Z M 1.59375 -0.015625 L 5.546875 -0.015625 C 5.671875 -0.160156 5.757812 -0.257812 5.8125 -0.3125 C 5.863281 -0.363281 5.910156 -0.414062 5.953125 -0.46875 C 6.078125 -0.613281 6.175781 -0.6875 6.25 -0.6875 C 6.3125 -0.6875 6.382812 -0.65625 6.46875 -0.59375 C 6.5625 -0.539062 6.648438 -0.472656 6.734375 -0.390625 C 6.828125 -0.316406 6.90625 -0.238281 6.96875 -0.15625 C 7.039062 -0.0703125 7.078125 -0.0078125 7.078125 0.03125 C 7.078125 0.113281 7.003906 0.15625 6.859375 0.15625 L 1.59375 0.15625 C 1.59375 0.25 1.585938 0.316406 1.578125 0.359375 C 1.566406 0.398438 1.546875 0.441406 1.515625 0.484375 C 1.460938 0.535156 1.375 0.578125 1.25 0.609375 C 1.132812 0.640625 1.015625 0.65625 0.890625 0.65625 C 0.773438 0.65625 0.691406 0.632812 0.640625 0.59375 C 0.597656 0.5625 0.578125 0.5 0.578125 0.40625 C 0.585938 0.207031 0.597656 0.00390625 0.609375 -0.203125 C 0.617188 -0.410156 0.625 -0.613281 0.625 -0.8125 C 0.632812 -1.3125 0.644531 -1.9375 0.65625 -2.6875 C 0.664062 -3.445312 0.671875 -4.285156 0.671875 -5.203125 L 0.65625 -5.96875 L 0.65625 -5.984375 C 0.65625 -6.023438 0.671875 -6.046875 0.703125 -6.046875 C 0.734375 -6.046875 0.785156 -6.035156 0.859375 -6.015625 C 0.941406 -5.992188 1.035156 -5.96875 1.140625 -5.9375 C 1.242188 -5.90625 1.335938 -5.875 1.421875 -5.84375 C 1.503906 -5.820312 1.566406 -5.800781 1.609375 -5.78125 C 1.671875 -5.75 1.734375 -5.695312 1.796875 -5.625 L 5.484375 -5.625 C 5.640625 -5.8125 5.753906 -5.945312 5.828125 -6.03125 C 5.898438 -6.125 5.953125 -6.179688 5.984375 -6.203125 C 6.023438 -6.234375 6.066406 -6.25 6.109375 -6.25 C 6.160156 -6.25 6.234375 -6.222656 6.328125 -6.171875 C 6.429688 -6.117188 6.53125 -6.050781 6.625 -5.96875 C 6.726562 -5.894531 6.8125 -5.820312 6.875 -5.75 C 6.945312 -5.675781 6.984375 -5.617188 6.984375 -5.578125 C 6.984375 -5.535156 6.960938 -5.5 6.921875 -5.46875 C 6.890625 -5.445312 6.847656 -5.4375 6.796875 -5.4375 L 1.796875 -5.4375 C 1.722656 -5.425781 1.671875 -5.398438 1.640625 -5.359375 C 1.617188 -5.328125 1.601562 -5.265625 1.59375 -5.171875 C 1.59375 -5.128906 1.59375 -5.03125 1.59375 -4.875 C 1.59375 -4.71875 1.59375 -4.53125 1.59375 -4.3125 C 1.59375 -4.09375 1.585938 -3.867188 1.578125 -3.640625 C 1.578125 -3.421875 1.578125 -3.222656 1.578125 -3.046875 C 1.578125 -2.867188 1.578125 -2.75 1.578125 -2.6875 C 1.578125 -2.613281 1.578125 -2.503906 1.578125 -2.359375 C 1.578125 -2.222656 1.582031 -2.0625 1.59375 -1.875 Z M 1.59375 -0.015625 "/></g></g></g></g><g clip-path="url(#0e6f8ea050)"><g fill="#f8f9f0" fill-opacity="1"><g transform="translate(22.718702, 7.443161)"><g><path d="M 1.125 -2.46875 L 0.859375 -2.390625 C 0.722656 -2.316406 0.617188 -2.28125 0.546875 -2.28125 C 0.472656 -2.28125 0.425781 -2.335938 0.40625 -2.453125 C 0.382812 -2.578125 0.363281 -2.691406 0.34375 -2.796875 C 0.320312 -2.910156 0.304688 -3.03125 0.296875 -3.15625 C 0.910156 -3.125 1.289062 -3.101562 1.4375 -3.09375 C 1.570312 -3.320312 1.6875 -3.53125 1.78125 -3.71875 C 1.882812 -3.90625 1.976562 -4.101562 2.0625 -4.3125 C 2.15625 -4.519531 2.253906 -4.765625 2.359375 -5.046875 C 2.722656 -4.867188 2.984375 -4.707031 3.140625 -4.5625 C 3.242188 -4.476562 3.296875 -4.398438 3.296875 -4.328125 C 3.296875 -4.234375 3.191406 -4.175781 2.984375 -4.15625 C 2.867188 -4.039062 2.757812 -3.9375 2.65625 -3.84375 C 2.5625 -3.75 2.453125 -3.640625 2.328125 -3.515625 C 2.210938 -3.398438 2.050781 -3.253906 1.84375 -3.078125 C 1.976562 -3.066406 2.078125 -3.0625 2.140625 -3.0625 C 2.203125 -3.0625 2.265625 -3.0625 2.328125 -3.0625 C 2.390625 -3.0625 2.476562 -3.054688 2.59375 -3.046875 C 2.582031 -3.097656 2.550781 -3.164062 2.5 -3.25 C 2.457031 -3.332031 2.425781 -3.382812 2.40625 -3.40625 C 2.375 -3.425781 2.359375 -3.441406 2.359375 -3.453125 C 2.359375 -3.472656 2.375 -3.484375 2.40625 -3.484375 C 2.457031 -3.484375 2.53125 -3.46875 2.625 -3.4375 C 2.71875 -3.414062 2.804688 -3.390625 2.890625 -3.359375 C 3.296875 -3.171875 3.5 -2.929688 3.5 -2.640625 C 3.5 -2.503906 3.457031 -2.382812 3.375 -2.28125 C 3.289062 -2.1875 3.175781 -2.140625 3.03125 -2.140625 C 2.925781 -2.140625 2.84375 -2.164062 2.78125 -2.21875 C 2.71875 -2.269531 2.679688 -2.335938 2.671875 -2.421875 C 2.671875 -2.460938 2.664062 -2.515625 2.65625 -2.578125 C 2.644531 -2.640625 2.640625 -2.722656 2.640625 -2.828125 C 2.585938 -2.816406 2.523438 -2.800781 2.453125 -2.78125 C 2.378906 -2.769531 2.328125 -2.757812 2.296875 -2.75 C 2.296875 -2.59375 2.296875 -2.457031 2.296875 -2.34375 C 2.296875 -2.238281 2.296875 -2.128906 2.296875 -2.015625 C 2.296875 -1.898438 2.296875 -1.757812 2.296875 -1.59375 C 2.304688 -1.4375 2.3125 -1.234375 2.3125 -0.984375 C 2.320312 -0.734375 2.328125 -0.40625 2.328125 0 L 2.328125 0.25 C 2.328125 0.375 2.289062 0.457031 2.21875 0.5 C 2.15625 0.53125 2.078125 0.554688 1.984375 0.578125 C 1.890625 0.609375 1.796875 0.625 1.703125 0.625 C 1.597656 0.625 1.53125 0.601562 1.5 0.5625 C 1.46875 0.53125 1.453125 0.460938 1.453125 0.359375 C 1.453125 0.347656 1.457031 0.207031 1.46875 -0.0625 C 1.476562 -0.332031 1.492188 -0.773438 1.515625 -1.390625 C 1.515625 -1.398438 1.515625 -1.503906 1.515625 -1.703125 C 1.523438 -1.910156 1.53125 -2.203125 1.53125 -2.578125 C 1.476562 -2.554688 1.414062 -2.535156 1.34375 -2.515625 C 1.28125 -2.503906 1.207031 -2.488281 1.125 -2.46875 Z M 5.421875 -4.734375 L 5.953125 -4.734375 C 5.984375 -4.773438 6.023438 -4.835938 6.078125 -4.921875 C 6.128906 -5.003906 6.1875 -5.101562 6.25 -5.21875 C 6.332031 -5.363281 6.421875 -5.4375 6.515625 -5.4375 C 6.578125 -5.4375 6.644531 -5.40625 6.71875 -5.34375 C 6.800781 -5.289062 6.898438 -5.195312 7.015625 -5.0625 C 7.160156 -4.882812 7.234375 -4.757812 7.234375 -4.6875 C 7.234375 -4.65625 7.210938 -4.625 7.171875 -4.59375 C 7.140625 -4.5625 7.097656 -4.546875 7.046875 -4.546875 L 5.421875 -4.546875 L 5.421875 -3.21875 L 5.890625 -3.21875 C 5.929688 -3.269531 5.96875 -3.320312 6 -3.375 C 6.039062 -3.4375 6.101562 -3.523438 6.1875 -3.640625 C 6.28125 -3.785156 6.367188 -3.859375 6.453125 -3.859375 C 6.503906 -3.859375 6.566406 -3.832031 6.640625 -3.78125 C 6.722656 -3.726562 6.796875 -3.664062 6.859375 -3.59375 C 6.929688 -3.519531 6.992188 -3.441406 7.046875 -3.359375 C 7.097656 -3.285156 7.125 -3.222656 7.125 -3.171875 C 7.125 -3.078125 7.0625 -3.03125 6.9375 -3.03125 L 4.046875 -3.03125 C 3.953125 -3.03125 3.851562 -3.03125 3.75 -3.03125 C 3.65625 -3.03125 3.5625 -3.023438 3.46875 -3.015625 C 3.414062 -3.085938 3.378906 -3.132812 3.359375 -3.15625 C 3.347656 -3.175781 3.34375 -3.1875 3.34375 -3.1875 C 3.34375 -3.226562 3.363281 -3.25 3.40625 -3.25 C 3.488281 -3.238281 3.570312 -3.234375 3.65625 -3.234375 C 3.75 -3.234375 3.820312 -3.234375 3.875 -3.234375 L 4.46875 -3.234375 L 4.46875 -4.546875 L 3.828125 -4.546875 C 3.640625 -4.546875 3.445312 -4.539062 3.25 -4.53125 C 3.195312 -4.613281 3.160156 -4.664062 3.140625 -4.6875 C 3.128906 -4.707031 3.125 -4.71875 3.125 -4.71875 C 3.125 -4.757812 3.144531 -4.78125 3.1875 -4.78125 C 3.269531 -4.769531 3.351562 -4.757812 3.4375 -4.75 C 3.53125 -4.75 3.601562 -4.75 3.65625 -4.75 L 4.453125 -4.75 C 4.453125 -4.988281 4.445312 -5.234375 4.4375 -5.484375 C 4.4375 -5.734375 4.4375 -5.976562 4.4375 -6.21875 C 4.4375 -6.25 4.445312 -6.265625 4.46875 -6.265625 C 4.59375 -6.265625 4.738281 -6.253906 4.90625 -6.234375 C 5.070312 -6.210938 5.226562 -6.179688 5.375 -6.140625 C 5.5625 -6.085938 5.65625 -6.015625 5.65625 -5.921875 C 5.65625 -5.859375 5.578125 -5.785156 5.421875 -5.703125 Z M 4.5625 -2.09375 L 5.640625 -2.09375 C 5.660156 -2.132812 5.679688 -2.175781 5.703125 -2.21875 C 5.734375 -2.257812 5.773438 -2.316406 5.828125 -2.390625 C 5.898438 -2.503906 5.96875 -2.5625 6.03125 -2.5625 C 6.0625 -2.5625 6.125 -2.535156 6.21875 -2.484375 C 6.320312 -2.429688 6.4375 -2.367188 6.5625 -2.296875 C 6.6875 -2.210938 6.773438 -2.140625 6.828125 -2.078125 C 6.890625 -2.015625 6.921875 -1.953125 6.921875 -1.890625 C 6.921875 -1.847656 6.898438 -1.804688 6.859375 -1.765625 C 6.828125 -1.734375 6.765625 -1.691406 6.671875 -1.640625 C 6.671875 -1.546875 6.675781 -1.363281 6.6875 -1.09375 C 6.695312 -0.832031 6.710938 -0.488281 6.734375 -0.0625 C 6.742188 0.0078125 6.75 0.0546875 6.75 0.078125 C 6.75 0.109375 6.75 0.128906 6.75 0.140625 C 6.75 0.253906 6.710938 0.34375 6.640625 0.40625 C 6.585938 0.457031 6.5 0.5 6.375 0.53125 C 6.257812 0.5625 6.140625 0.578125 6.015625 0.578125 C 5.898438 0.578125 5.820312 0.554688 5.78125 0.515625 C 5.738281 0.472656 5.71875 0.394531 5.71875 0.28125 L 5.71875 0.09375 L 4.5 0.09375 L 4.5 0.171875 C 4.5 0.347656 4.414062 0.460938 4.25 0.515625 C 4.207031 0.523438 4.148438 0.535156 4.078125 0.546875 C 4.015625 0.566406 3.960938 0.578125 3.921875 0.578125 C 3.710938 0.578125 3.609375 0.507812 3.609375 0.375 C 3.609375 0.226562 3.609375 0.0859375 3.609375 -0.046875 C 3.617188 -0.191406 3.628906 -0.335938 3.640625 -0.484375 C 3.640625 -0.597656 3.640625 -0.703125 3.640625 -0.796875 C 3.640625 -0.890625 3.640625 -0.984375 3.640625 -1.078125 C 3.640625 -1.285156 3.640625 -1.492188 3.640625 -1.703125 C 3.640625 -1.910156 3.640625 -2.066406 3.640625 -2.171875 L 3.640625 -2.265625 C 3.640625 -2.304688 3.640625 -2.332031 3.640625 -2.34375 C 3.648438 -2.363281 3.671875 -2.375 3.703125 -2.375 C 3.773438 -2.375 3.875 -2.359375 4 -2.328125 C 4.125 -2.296875 4.238281 -2.257812 4.34375 -2.21875 C 4.457031 -2.175781 4.53125 -2.132812 4.5625 -2.09375 Z M 5.71875 -0.078125 L 5.71875 -0.640625 C 5.71875 -0.773438 5.71875 -0.921875 5.71875 -1.078125 C 5.71875 -1.242188 5.71875 -1.394531 5.71875 -1.53125 C 5.71875 -1.664062 5.71875 -1.753906 5.71875 -1.796875 C 5.71875 -1.890625 5.664062 -1.9375 5.5625 -1.9375 L 4.625 -1.921875 C 4.570312 -1.921875 4.535156 -1.898438 4.515625 -1.859375 C 4.492188 -1.816406 4.484375 -1.738281 4.484375 -1.625 C 4.484375 -1.363281 4.484375 -1.085938 4.484375 -0.796875 C 4.484375 -0.515625 4.488281 -0.273438 4.5 -0.078125 Z M 2.6875 -5.71875 C 2.6875 -5.664062 2.664062 -5.625 2.625 -5.59375 C 2.582031 -5.5625 2.507812 -5.53125 2.40625 -5.5 C 2.1875 -5.238281 2.003906 -5.035156 1.859375 -4.890625 C 1.710938 -4.753906 1.585938 -4.640625 1.484375 -4.546875 C 1.671875 -4.410156 1.765625 -4.242188 1.765625 -4.046875 C 1.765625 -3.898438 1.710938 -3.773438 1.609375 -3.671875 C 1.515625 -3.578125 1.394531 -3.53125 1.25 -3.53125 C 1.125 -3.53125 1.035156 -3.554688 0.984375 -3.609375 C 0.941406 -3.671875 0.898438 -3.796875 0.859375 -3.984375 C 0.816406 -4.171875 0.757812 -4.335938 0.6875 -4.484375 C 0.613281 -4.640625 0.535156 -4.753906 0.453125 -4.828125 C 0.441406 -4.847656 0.4375 -4.863281 0.4375 -4.875 C 0.4375 -4.894531 0.445312 -4.90625 0.46875 -4.90625 C 0.5 -4.90625 0.550781 -4.894531 0.625 -4.875 C 0.707031 -4.863281 0.796875 -4.847656 0.890625 -4.828125 C 0.984375 -4.804688 1.066406 -4.78125 1.140625 -4.75 C 1.222656 -5.007812 1.289062 -5.253906 1.34375 -5.484375 C 1.40625 -5.722656 1.460938 -5.976562 1.515625 -6.25 C 1.722656 -6.195312 1.90625 -6.144531 2.0625 -6.09375 C 2.21875 -6.050781 2.34375 -6.003906 2.4375 -5.953125 C 2.601562 -5.867188 2.6875 -5.789062 2.6875 -5.71875 Z M 3.484375 -0.921875 C 3.484375 -0.765625 3.4375 -0.632812 3.34375 -0.53125 C 3.25 -0.4375 3.128906 -0.390625 2.984375 -0.390625 C 2.816406 -0.390625 2.710938 -0.445312 2.671875 -0.5625 C 2.660156 -0.59375 2.648438 -0.625 2.640625 -0.65625 C 2.640625 -0.6875 2.640625 -0.734375 2.640625 -0.796875 C 2.640625 -1.085938 2.625 -1.3125 2.59375 -1.46875 C 2.5625 -1.625 2.507812 -1.753906 2.4375 -1.859375 C 2.425781 -1.867188 2.421875 -1.878906 2.421875 -1.890625 C 2.421875 -1.898438 2.429688 -1.90625 2.453125 -1.90625 C 2.503906 -1.90625 2.585938 -1.875 2.703125 -1.8125 C 2.828125 -1.757812 2.941406 -1.695312 3.046875 -1.625 C 3.335938 -1.414062 3.484375 -1.179688 3.484375 -0.921875 Z M 1.421875 -1.84375 C 1.421875 -1.800781 1.378906 -1.75 1.296875 -1.6875 C 1.253906 -1.332031 1.1875 -1.023438 1.09375 -0.765625 C 1.007812 -0.503906 0.890625 -0.269531 0.734375 -0.0625 C 0.679688 -0.0078125 0.625 0.0390625 0.5625 0.09375 C 0.5 0.15625 0.445312 0.207031 0.40625 0.25 C 0.363281 0.28125 0.332031 0.296875 0.3125 0.296875 C 0.300781 0.296875 0.296875 0.285156 0.296875 0.265625 C 0.296875 0.253906 0.300781 0.238281 0.3125 0.21875 C 0.351562 0.132812 0.390625 0.0507812 0.421875 -0.03125 C 0.453125 -0.125 0.472656 -0.226562 0.484375 -0.34375 C 0.535156 -0.613281 0.5625 -0.945312 0.5625 -1.34375 C 0.5625 -1.382812 0.5625 -1.425781 0.5625 -1.46875 C 0.5625 -1.519531 0.554688 -1.59375 0.546875 -1.6875 C 0.546875 -1.789062 0.546875 -1.945312 0.546875 -2.15625 C 0.578125 -2.144531 0.601562 -2.132812 0.625 -2.125 C 0.644531 -2.125 0.679688 -2.117188 0.734375 -2.109375 C 0.785156 -2.097656 0.863281 -2.082031 0.96875 -2.0625 C 1.269531 -2 1.421875 -1.925781 1.421875 -1.84375 Z M 1.421875 -1.84375 "/></g></g></g></g><g clip-path="url(#97cc14f658)"><g fill="#f8f9f0" fill-opacity="1"><g transform="translate(30.158659, 7.443161)"><g><path d="M 5.875 -5.9375 C 5.957031 -5.9375 6.0625 -5.921875 6.1875 -5.890625 C 6.320312 -5.867188 6.421875 -5.835938 6.484375 -5.796875 C 6.710938 -5.671875 6.828125 -5.515625 6.828125 -5.328125 C 6.828125 -5.234375 6.800781 -5.15625 6.75 -5.09375 C 6.695312 -5.039062 6.628906 -5.015625 6.546875 -5.015625 C 6.472656 -5.015625 6.421875 -5.03125 6.390625 -5.0625 C 6.367188 -5.101562 6.335938 -5.1875 6.296875 -5.3125 C 6.253906 -5.414062 6.191406 -5.519531 6.109375 -5.625 C 6.035156 -5.726562 5.953125 -5.8125 5.859375 -5.875 C 5.835938 -5.882812 5.820312 -5.894531 5.8125 -5.90625 C 5.8125 -5.925781 5.832031 -5.9375 5.875 -5.9375 Z M 5.828125 -4.703125 C 5.765625 -4.703125 5.703125 -4.734375 5.640625 -4.796875 C 5.617188 -4.804688 5.601562 -4.820312 5.59375 -4.84375 C 5.59375 -4.863281 5.585938 -4.914062 5.578125 -5 C 5.554688 -5.113281 5.523438 -5.226562 5.484375 -5.34375 C 5.441406 -5.457031 5.382812 -5.550781 5.3125 -5.625 C 5.289062 -5.644531 5.285156 -5.660156 5.296875 -5.671875 C 5.316406 -5.679688 5.332031 -5.6875 5.34375 -5.6875 C 5.363281 -5.6875 5.398438 -5.675781 5.453125 -5.65625 C 5.515625 -5.632812 5.566406 -5.609375 5.609375 -5.578125 C 5.929688 -5.421875 6.09375 -5.222656 6.09375 -4.984375 C 6.09375 -4.910156 6.066406 -4.84375 6.015625 -4.78125 C 5.960938 -4.726562 5.898438 -4.703125 5.828125 -4.703125 Z M 2.046875 -4.34375 C 1.890625 -4.351562 1.769531 -4.378906 1.6875 -4.421875 C 1.613281 -4.472656 1.550781 -4.5625 1.5 -4.6875 C 1.46875 -4.769531 1.429688 -4.875 1.390625 -5 C 1.359375 -5.132812 1.34375 -5.238281 1.34375 -5.3125 C 1.34375 -5.382812 1.363281 -5.421875 1.40625 -5.421875 C 1.414062 -5.421875 1.429688 -5.40625 1.453125 -5.375 C 1.515625 -5.25 1.578125 -5.160156 1.640625 -5.109375 C 1.703125 -5.054688 1.78125 -5.03125 1.875 -5.03125 C 2.007812 -5.03125 2.140625 -5.054688 2.265625 -5.109375 C 2.390625 -5.160156 2.523438 -5.242188 2.671875 -5.359375 C 2.722656 -5.390625 2.773438 -5.410156 2.828125 -5.421875 C 2.890625 -5.429688 2.945312 -5.4375 3 -5.4375 C 3.082031 -5.4375 3.160156 -5.421875 3.234375 -5.390625 C 3.304688 -5.359375 3.390625 -5.304688 3.484375 -5.234375 C 3.554688 -5.171875 3.59375 -5.097656 3.59375 -5.015625 C 3.59375 -4.941406 3.5625 -4.867188 3.5 -4.796875 C 3.488281 -4.785156 3.472656 -4.769531 3.453125 -4.75 C 3.429688 -4.738281 3.375 -4.691406 3.28125 -4.609375 C 3.238281 -4.566406 3.203125 -4.53125 3.171875 -4.5 C 3.140625 -4.476562 3.097656 -4.441406 3.046875 -4.390625 C 2.785156 -4.097656 2.5625 -3.8125 2.375 -3.53125 C 2.195312 -3.257812 2.023438 -2.957031 1.859375 -2.625 C 1.546875 -1.988281 1.390625 -1.492188 1.390625 -1.140625 C 1.390625 -0.921875 1.453125 -0.75 1.578125 -0.625 C 1.628906 -0.5625 1.703125 -0.519531 1.796875 -0.5 C 1.898438 -0.476562 2.019531 -0.46875 2.15625 -0.46875 C 2.625 -0.46875 3.023438 -0.585938 3.359375 -0.828125 C 3.691406 -1.066406 3.945312 -1.398438 4.125 -1.828125 C 4.300781 -2.265625 4.390625 -2.769531 4.390625 -3.34375 C 4.390625 -3.570312 4.367188 -3.769531 4.328125 -3.9375 C 4.328125 -3.96875 4.320312 -3.992188 4.3125 -4.015625 C 4.300781 -4.046875 4.296875 -4.070312 4.296875 -4.09375 C 4.296875 -4.15625 4.34375 -4.210938 4.4375 -4.265625 C 4.53125 -4.328125 4.628906 -4.359375 4.734375 -4.359375 C 5.015625 -4.359375 5.164062 -4.234375 5.1875 -3.984375 C 5.207031 -3.660156 5.257812 -3.359375 5.34375 -3.078125 C 5.4375 -2.804688 5.578125 -2.539062 5.765625 -2.28125 C 5.953125 -2.019531 6.195312 -1.742188 6.5 -1.453125 C 6.625 -1.328125 6.710938 -1.210938 6.765625 -1.109375 C 6.828125 -1.015625 6.859375 -0.914062 6.859375 -0.8125 C 6.859375 -0.738281 6.820312 -0.671875 6.75 -0.609375 C 6.6875 -0.554688 6.613281 -0.53125 6.53125 -0.53125 C 6.4375 -0.53125 6.320312 -0.578125 6.1875 -0.671875 C 6.0625 -0.773438 5.925781 -0.910156 5.78125 -1.078125 C 5.644531 -1.253906 5.519531 -1.453125 5.40625 -1.671875 C 5.25 -1.953125 5.117188 -2.257812 5.015625 -2.59375 C 4.921875 -2.925781 4.84375 -3.304688 4.78125 -3.734375 C 4.757812 -3.835938 4.742188 -3.90625 4.734375 -3.9375 C 4.722656 -3.96875 4.703125 -3.984375 4.671875 -3.984375 C 4.640625 -3.984375 4.601562 -3.960938 4.5625 -3.921875 C 4.519531 -3.878906 4.5 -3.84375 4.5 -3.8125 C 4.507812 -3.757812 4.515625 -3.6875 4.515625 -3.59375 C 4.523438 -3.5 4.53125 -3.390625 4.53125 -3.265625 C 4.539062 -3.148438 4.546875 -3.039062 4.546875 -2.9375 C 4.554688 -2.84375 4.5625 -2.78125 4.5625 -2.75 C 4.5625 -2.476562 4.546875 -2.234375 4.515625 -2.015625 C 4.492188 -1.796875 4.453125 -1.582031 4.390625 -1.375 C 4.222656 -0.789062 3.9375 -0.367188 3.53125 -0.109375 C 3.363281 -0.00390625 3.175781 0.0703125 2.96875 0.125 C 2.769531 0.1875 2.570312 0.21875 2.375 0.21875 C 2.101562 0.21875 1.863281 0.15625 1.65625 0.03125 C 1.457031 -0.0820312 1.296875 -0.242188 1.171875 -0.453125 C 1.054688 -0.660156 1 -0.90625 1 -1.1875 C 1 -1.445312 1.035156 -1.734375 1.109375 -2.046875 C 1.179688 -2.367188 1.28125 -2.691406 1.40625 -3.015625 C 1.457031 -3.128906 1.503906 -3.238281 1.546875 -3.34375 C 1.585938 -3.445312 1.644531 -3.570312 1.71875 -3.71875 C 1.800781 -3.875 1.910156 -4.082031 2.046875 -4.34375 Z M 2.046875 -4.34375 "/></g></g></g></g></g></g><g transform="matrix(1, 0, 0, 1, 19, 21)"><g clip-path="url(#e830b949a8)"><g clip-path="url(#a401b5b305)"><g fill="#f8f9f0" fill-opacity="1"><g transform="translate(0.303457, 1.820403)"><g><path d="M 1.21875 -1.390625 L 1.265625 -1.46875 L 1.3125 -1.46875 C 1.3125 -1.425781 1.304688 -1.378906 1.296875 -1.328125 C 1.296875 -1.285156 1.296875 -1.242188 1.296875 -1.203125 C 1.296875 -1.160156 1.296875 -1.117188 1.296875 -1.078125 C 1.296875 -1.046875 1.296875 -1.015625 1.296875 -0.984375 L 1.234375 -0.984375 C 1.234375 -1.054688 1.226562 -1.113281 1.21875 -1.15625 C 1.207031 -1.207031 1.191406 -1.253906 1.171875 -1.296875 C 1.140625 -1.335938 1.09375 -1.375 1.03125 -1.40625 C 0.976562 -1.4375 0.921875 -1.453125 0.859375 -1.453125 C 0.796875 -1.453125 0.726562 -1.429688 0.65625 -1.390625 C 0.59375 -1.359375 0.546875 -1.316406 0.515625 -1.265625 C 0.484375 -1.203125 0.457031 -1.125 0.4375 -1.03125 C 0.414062 -0.945312 0.40625 -0.851562 0.40625 -0.75 C 0.40625 -0.539062 0.441406 -0.382812 0.515625 -0.28125 C 0.546875 -0.21875 0.59375 -0.164062 0.65625 -0.125 C 0.726562 -0.09375 0.800781 -0.078125 0.875 -0.078125 C 0.9375 -0.078125 0.992188 -0.09375 1.046875 -0.125 C 1.109375 -0.15625 1.15625 -0.191406 1.1875 -0.234375 C 1.207031 -0.273438 1.222656 -0.320312 1.234375 -0.375 C 1.253906 -0.425781 1.269531 -0.488281 1.28125 -0.5625 L 1.328125 -0.5625 C 1.316406 -0.425781 1.3125 -0.328125 1.3125 -0.265625 C 1.3125 -0.234375 1.3125 -0.195312 1.3125 -0.15625 C 1.320312 -0.125 1.328125 -0.09375 1.328125 -0.0625 L 1.28125 -0.046875 L 1.21875 -0.125 C 1.164062 -0.09375 1.117188 -0.0664062 1.078125 -0.046875 C 1.035156 -0.0351562 0.992188 -0.0234375 0.953125 -0.015625 C 0.910156 -0.00390625 0.863281 0 0.8125 0 C 0.664062 0 0.535156 -0.03125 0.421875 -0.09375 C 0.316406 -0.15625 0.234375 -0.238281 0.171875 -0.34375 C 0.109375 -0.457031 0.078125 -0.585938 0.078125 -0.734375 C 0.078125 -0.847656 0.09375 -0.953125 0.125 -1.046875 C 0.164062 -1.140625 0.21875 -1.222656 0.28125 -1.296875 C 0.34375 -1.367188 0.414062 -1.421875 0.5 -1.453125 C 0.59375 -1.492188 0.691406 -1.515625 0.796875 -1.515625 C 0.960938 -1.515625 1.101562 -1.472656 1.21875 -1.390625 Z M 1.21875 -1.390625 "/></g></g></g></g><g clip-path="url(#7432f5bba2)"><g fill="#f8f9f0" fill-opacity="1"><g transform="translate(1.725652, 1.820403)"><g><path d="M 1.4375 -0.109375 L 1.4375 -0.046875 C 1.375 -0.0234375 1.3125 -0.015625 1.25 -0.015625 C 1.144531 -0.015625 1.066406 -0.046875 1.015625 -0.109375 C 1.003906 -0.128906 0.992188 -0.148438 0.984375 -0.171875 C 0.972656 -0.191406 0.96875 -0.21875 0.96875 -0.25 C 0.96875 -0.28125 0.960938 -0.320312 0.953125 -0.375 C 0.953125 -0.445312 0.945312 -0.5 0.9375 -0.53125 C 0.925781 -0.5625 0.914062 -0.59375 0.90625 -0.625 C 0.882812 -0.664062 0.851562 -0.695312 0.8125 -0.71875 C 0.78125 -0.738281 0.742188 -0.75 0.703125 -0.75 L 0.5625 -0.75 L 0.5625 -0.09375 L 0.765625 -0.09375 L 0.765625 -0.03125 L 0.0625 -0.03125 L 0.0625 -0.09375 L 0.265625 -0.09375 C 0.265625 -0.175781 0.265625 -0.253906 0.265625 -0.328125 L 0.265625 -1.421875 L 0.078125 -1.4375 L 0.078125 -1.484375 C 0.109375 -1.484375 0.140625 -1.484375 0.171875 -1.484375 C 0.210938 -1.484375 0.25 -1.484375 0.28125 -1.484375 C 0.351562 -1.484375 0.414062 -1.484375 0.46875 -1.484375 C 0.519531 -1.484375 0.570312 -1.484375 0.625 -1.484375 C 0.675781 -1.492188 0.734375 -1.5 0.796875 -1.5 C 0.878906 -1.5 0.945312 -1.488281 1 -1.46875 C 1.0625 -1.445312 1.113281 -1.414062 1.15625 -1.375 C 1.21875 -1.3125 1.25 -1.234375 1.25 -1.140625 C 1.25 -1.066406 1.226562 -1.003906 1.1875 -0.953125 C 1.15625 -0.898438 1.101562 -0.859375 1.03125 -0.828125 C 1.007812 -0.816406 0.988281 -0.804688 0.96875 -0.796875 C 0.945312 -0.796875 0.921875 -0.789062 0.890625 -0.78125 C 0.867188 -0.78125 0.835938 -0.78125 0.796875 -0.78125 C 0.867188 -0.769531 0.925781 -0.753906 0.96875 -0.734375 C 1.007812 -0.722656 1.050781 -0.707031 1.09375 -0.6875 C 1.125 -0.664062 1.148438 -0.640625 1.171875 -0.609375 C 1.191406 -0.585938 1.207031 -0.550781 1.21875 -0.5 C 1.226562 -0.457031 1.234375 -0.40625 1.234375 -0.34375 C 1.234375 -0.28125 1.234375 -0.234375 1.234375 -0.203125 C 1.242188 -0.179688 1.253906 -0.160156 1.265625 -0.140625 C 1.273438 -0.109375 1.300781 -0.09375 1.34375 -0.09375 C 1.351562 -0.09375 1.363281 -0.09375 1.375 -0.09375 C 1.382812 -0.09375 1.40625 -0.0976562 1.4375 -0.109375 Z M 0.5625 -0.8125 L 0.6875 -0.8125 C 0.78125 -0.8125 0.851562 -0.835938 0.90625 -0.890625 C 0.957031 -0.953125 0.984375 -1.03125 0.984375 -1.125 C 0.984375 -1.332031 0.875 -1.4375 0.65625 -1.4375 C 0.632812 -1.4375 0.613281 -1.4375 0.59375 -1.4375 C 0.582031 -1.4375 0.570312 -1.429688 0.5625 -1.421875 C 0.5625 -1.421875 0.5625 -1.414062 0.5625 -1.40625 C 0.5625 -1.394531 0.5625 -1.378906 0.5625 -1.359375 Z M 0.5625 -0.8125 "/></g></g></g></g><g clip-path="url(#f870e1e5a4)"><g fill="#f8f9f0" fill-opacity="1"><g transform="translate(3.189794, 1.820403)"><g><path d="M 0 -0.03125 L 0 -0.09375 L 0.109375 -0.09375 C 0.140625 -0.09375 0.164062 -0.0976562 0.1875 -0.109375 C 0.1875 -0.117188 0.195312 -0.148438 0.21875 -0.203125 C 0.238281 -0.253906 0.257812 -0.320312 0.28125 -0.40625 L 0.5 -1.046875 C 0.519531 -1.140625 0.539062 -1.222656 0.5625 -1.296875 C 0.582031 -1.367188 0.601562 -1.441406 0.625 -1.515625 L 0.78125 -1.515625 C 0.789062 -1.441406 0.804688 -1.375 0.828125 -1.3125 C 0.847656 -1.257812 0.867188 -1.207031 0.890625 -1.15625 L 1.078125 -0.578125 C 1.109375 -0.492188 1.140625 -0.410156 1.171875 -0.328125 C 1.203125 -0.242188 1.226562 -0.164062 1.25 -0.09375 L 1.4375 -0.09375 L 1.4375 -0.03125 L 0.734375 -0.03125 L 0.734375 -0.09375 L 0.9375 -0.09375 L 0.796875 -0.546875 L 0.40625 -0.546875 L 0.34375 -0.34375 C 0.320312 -0.28125 0.304688 -0.234375 0.296875 -0.203125 C 0.296875 -0.171875 0.289062 -0.148438 0.28125 -0.140625 C 0.28125 -0.128906 0.28125 -0.117188 0.28125 -0.109375 C 0.28125 -0.0976562 0.296875 -0.09375 0.328125 -0.09375 L 0.46875 -0.09375 L 0.46875 -0.03125 Z M 0.421875 -0.609375 L 0.765625 -0.609375 L 0.59375 -1.171875 Z M 0.421875 -0.609375 "/></g></g></g></g><g clip-path="url(#1afa110e98)"><g fill="#f8f9f0" fill-opacity="1"><g transform="translate(4.609992, 1.820403)"><g><path d="M 0.0625 -0.03125 L 0.0625 -0.09375 L 0.265625 -0.09375 L 0.265625 -1.421875 L 0.078125 -1.4375 L 0.078125 -1.484375 C 0.148438 -1.484375 0.21875 -1.484375 0.28125 -1.484375 C 0.34375 -1.484375 0.410156 -1.484375 0.484375 -1.484375 C 0.597656 -1.484375 0.722656 -1.484375 0.859375 -1.484375 C 0.992188 -1.484375 1.117188 -1.484375 1.234375 -1.484375 C 1.242188 -1.441406 1.25 -1.398438 1.25 -1.359375 C 1.25 -1.328125 1.25 -1.289062 1.25 -1.25 C 1.25 -1.207031 1.25 -1.15625 1.25 -1.09375 L 1.203125 -1.09375 C 1.191406 -1.15625 1.175781 -1.207031 1.15625 -1.25 C 1.144531 -1.300781 1.117188 -1.335938 1.078125 -1.359375 C 1.046875 -1.378906 1.003906 -1.394531 0.953125 -1.40625 C 0.898438 -1.414062 0.828125 -1.421875 0.734375 -1.421875 C 0.703125 -1.421875 0.671875 -1.421875 0.640625 -1.421875 C 0.609375 -1.421875 0.582031 -1.421875 0.5625 -1.421875 L 0.5625 -0.8125 C 0.632812 -0.8125 0.6875 -0.8125 0.71875 -0.8125 C 0.757812 -0.820312 0.789062 -0.832031 0.8125 -0.84375 C 0.875 -0.882812 0.90625 -0.960938 0.90625 -1.078125 L 0.953125 -1.078125 C 0.953125 -1.003906 0.953125 -0.945312 0.953125 -0.90625 C 0.953125 -0.863281 0.953125 -0.828125 0.953125 -0.796875 C 0.953125 -0.742188 0.953125 -0.691406 0.953125 -0.640625 C 0.953125 -0.597656 0.953125 -0.546875 0.953125 -0.484375 L 0.90625 -0.484375 C 0.894531 -0.554688 0.882812 -0.609375 0.875 -0.640625 C 0.863281 -0.671875 0.84375 -0.695312 0.8125 -0.71875 C 0.800781 -0.726562 0.785156 -0.734375 0.765625 -0.734375 C 0.742188 -0.742188 0.71875 -0.75 0.6875 -0.75 C 0.65625 -0.75 0.613281 -0.75 0.5625 -0.75 L 0.5625 -0.09375 L 0.8125 -0.09375 L 0.8125 -0.03125 Z M 0.0625 -0.03125 "/></g></g></g></g><g clip-path="url(#d990cc991f)"><g fill="#f8f9f0" fill-opacity="1"><g transform="translate(5.912339, 1.820403)"><g><path d="M 0.375 -1.484375 L 0.921875 -1.484375 C 0.984375 -1.484375 1.039062 -1.484375 1.09375 -1.484375 C 1.15625 -1.484375 1.222656 -1.488281 1.296875 -1.5 C 1.296875 -1.476562 1.296875 -1.457031 1.296875 -1.4375 C 1.296875 -1.425781 1.296875 -1.40625 1.296875 -1.375 C 1.296875 -1.332031 1.296875 -1.285156 1.296875 -1.234375 C 1.296875 -1.179688 1.296875 -1.132812 1.296875 -1.09375 C 1.296875 -1.050781 1.296875 -1.019531 1.296875 -1 L 1.25 -1 C 1.238281 -1.082031 1.226562 -1.148438 1.21875 -1.203125 C 1.207031 -1.265625 1.1875 -1.304688 1.15625 -1.328125 C 1.132812 -1.359375 1.097656 -1.378906 1.046875 -1.390625 C 1.003906 -1.410156 0.945312 -1.421875 0.875 -1.421875 L 0.8125 -1.421875 L 0.8125 -0.09375 L 1.03125 -0.09375 L 1.03125 -0.03125 L 0.296875 -0.03125 L 0.296875 -0.09375 L 0.515625 -0.09375 L 0.515625 -1.421875 L 0.484375 -1.421875 C 0.335938 -1.421875 0.234375 -1.382812 0.171875 -1.3125 C 0.140625 -1.289062 0.113281 -1.253906 0.09375 -1.203125 C 0.0820312 -1.148438 0.0703125 -1.082031 0.0625 -1 L 0.015625 -1 C 0.0234375 -1.039062 0.03125 -1.09375 0.03125 -1.15625 C 0.03125 -1.226562 0.03125 -1.296875 0.03125 -1.359375 C 0.03125 -1.390625 0.03125 -1.410156 0.03125 -1.421875 C 0.03125 -1.441406 0.03125 -1.46875 0.03125 -1.5 C 0.101562 -1.488281 0.164062 -1.484375 0.21875 -1.484375 C 0.269531 -1.484375 0.320312 -1.484375 0.375 -1.484375 Z M 0.375 -1.484375 "/></g></g></g></g><g clip-path="url(#54335ad852)"><g fill="#f8f9f0" fill-opacity="1"><g transform="translate(7.232663, 1.820403)"><g><path d="M 0.0625 -0.03125 L 0.0625 -0.09375 L 0.265625 -0.09375 L 0.265625 -1.421875 L 0.078125 -1.4375 L 0.078125 -1.484375 C 0.117188 -1.484375 0.164062 -1.484375 0.21875 -1.484375 C 0.269531 -1.484375 0.335938 -1.484375 0.421875 -1.484375 C 0.640625 -1.484375 0.90625 -1.484375 1.21875 -1.484375 C 1.21875 -1.410156 1.21875 -1.34375 1.21875 -1.28125 C 1.21875 -1.21875 1.222656 -1.15625 1.234375 -1.09375 L 1.1875 -1.09375 C 1.164062 -1.164062 1.144531 -1.222656 1.125 -1.265625 C 1.113281 -1.304688 1.085938 -1.335938 1.046875 -1.359375 C 1.015625 -1.378906 0.972656 -1.394531 0.921875 -1.40625 C 0.878906 -1.414062 0.816406 -1.421875 0.734375 -1.421875 C 0.710938 -1.421875 0.691406 -1.421875 0.671875 -1.421875 C 0.648438 -1.421875 0.613281 -1.421875 0.5625 -1.421875 L 0.5625 -0.828125 C 0.613281 -0.828125 0.65625 -0.828125 0.6875 -0.828125 C 0.71875 -0.828125 0.738281 -0.828125 0.75 -0.828125 C 0.769531 -0.835938 0.789062 -0.847656 0.8125 -0.859375 C 0.875 -0.890625 0.90625 -0.96875 0.90625 -1.09375 L 0.953125 -1.09375 C 0.953125 -1.03125 0.953125 -0.976562 0.953125 -0.9375 C 0.953125 -0.90625 0.953125 -0.863281 0.953125 -0.8125 C 0.953125 -0.769531 0.953125 -0.722656 0.953125 -0.671875 C 0.953125 -0.628906 0.953125 -0.570312 0.953125 -0.5 L 0.90625 -0.5 C 0.894531 -0.570312 0.882812 -0.625 0.875 -0.65625 C 0.863281 -0.695312 0.84375 -0.722656 0.8125 -0.734375 C 0.800781 -0.742188 0.785156 -0.75 0.765625 -0.75 C 0.753906 -0.757812 0.734375 -0.765625 0.703125 -0.765625 C 0.671875 -0.765625 0.625 -0.765625 0.5625 -0.765625 L 0.5625 -0.109375 L 0.65625 -0.109375 C 0.71875 -0.109375 0.769531 -0.109375 0.8125 -0.109375 C 0.851562 -0.109375 0.882812 -0.109375 0.90625 -0.109375 C 0.9375 -0.117188 0.96875 -0.125 1 -0.125 C 1.050781 -0.144531 1.09375 -0.164062 1.125 -0.1875 C 1.15625 -0.21875 1.175781 -0.253906 1.1875 -0.296875 C 1.207031 -0.347656 1.226562 -0.414062 1.25 -0.5 L 1.296875 -0.5 C 1.296875 -0.4375 1.289062 -0.378906 1.28125 -0.328125 C 1.28125 -0.285156 1.28125 -0.238281 1.28125 -0.1875 C 1.28125 -0.144531 1.273438 -0.09375 1.265625 -0.03125 C 1.109375 -0.03125 0.957031 -0.03125 0.8125 -0.03125 C 0.664062 -0.03125 0.523438 -0.03125 0.390625 -0.03125 C 0.304688 -0.03125 0.238281 -0.03125 0.1875 -0.03125 C 0.144531 -0.03125 0.101562 -0.03125 0.0625 -0.03125 Z M 0.0625 -0.03125 "/></g></g></g></g><g clip-path="url(#3573868643)"><g fill="#f8f9f0" fill-opacity="1"><g transform="translate(8.610914, 1.820403)"><g><path d="M 0.0625 -0.03125 L 0.0625 -0.078125 L 0.265625 -0.09375 L 0.265625 -1.421875 L 0.0625 -1.4375 L 0.0625 -1.484375 C 0.113281 -1.484375 0.148438 -1.484375 0.171875 -1.484375 C 0.203125 -1.484375 0.234375 -1.484375 0.265625 -1.484375 C 0.335938 -1.484375 0.410156 -1.484375 0.484375 -1.484375 C 0.566406 -1.484375 0.648438 -1.484375 0.734375 -1.484375 C 0.828125 -1.484375 0.90625 -1.476562 0.96875 -1.46875 C 1.039062 -1.457031 1.109375 -1.429688 1.171875 -1.390625 C 1.265625 -1.335938 1.335938 -1.253906 1.390625 -1.140625 C 1.453125 -1.035156 1.484375 -0.910156 1.484375 -0.765625 C 1.484375 -0.628906 1.453125 -0.503906 1.390625 -0.390625 C 1.335938 -0.273438 1.257812 -0.1875 1.15625 -0.125 C 1.09375 -0.09375 1.019531 -0.0664062 0.9375 -0.046875 C 0.863281 -0.0351562 0.773438 -0.03125 0.671875 -0.03125 C 0.609375 -0.03125 0.546875 -0.03125 0.484375 -0.03125 C 0.421875 -0.03125 0.359375 -0.03125 0.296875 -0.03125 C 0.273438 -0.03125 0.242188 -0.03125 0.203125 -0.03125 C 0.160156 -0.03125 0.113281 -0.03125 0.0625 -0.03125 Z M 0.5625 -1.421875 L 0.5625 -0.09375 L 0.625 -0.09375 C 0.78125 -0.09375 0.898438 -0.132812 0.984375 -0.21875 C 1.035156 -0.269531 1.078125 -0.34375 1.109375 -0.4375 C 1.140625 -0.539062 1.15625 -0.65625 1.15625 -0.78125 C 1.15625 -1.050781 1.097656 -1.234375 0.984375 -1.328125 C 0.910156 -1.390625 0.800781 -1.421875 0.65625 -1.421875 C 0.644531 -1.421875 0.628906 -1.421875 0.609375 -1.421875 C 0.597656 -1.421875 0.582031 -1.421875 0.5625 -1.421875 Z M 0.5625 -1.421875 "/></g></g></g></g><g fill="#f8f9f0" fill-opacity="1"><g transform="translate(10.168936, 1.820403)"><g/></g></g><g clip-path="url(#f50d9c967c)"><g fill="#f8f9f0" fill-opacity="1"><g transform="translate(10.979907, 1.820403)"><g><path d="M 0.0625 -0.03125 L 0.0625 -0.09375 L 0.265625 -0.09375 L 0.265625 -1.4375 L 0.0625 -1.4375 L 0.0625 -1.484375 L 0.765625 -1.484375 L 0.765625 -1.4375 L 0.5625 -1.4375 L 0.5625 -0.09375 L 0.765625 -0.09375 L 0.765625 -0.03125 Z M 0.0625 -0.03125 "/></g></g></g></g><g clip-path="url(#002f878e14)"><g fill="#f8f9f0" fill-opacity="1"><g transform="translate(11.836819, 1.820403)"><g><path d="M 1.53125 -1.4375 L 1.40625 -1.4375 C 1.375 -1.4375 1.351562 -1.429688 1.34375 -1.421875 C 1.332031 -1.421875 1.320312 -1.410156 1.3125 -1.390625 C 1.3125 -1.378906 1.3125 -1.351562 1.3125 -1.3125 C 1.3125 -1.257812 1.3125 -1.207031 1.3125 -1.15625 C 1.3125 -1.101562 1.3125 -1.050781 1.3125 -1 L 1.296875 -0.3125 C 1.296875 -0.269531 1.296875 -0.226562 1.296875 -0.1875 C 1.296875 -0.144531 1.296875 -0.09375 1.296875 -0.03125 L 1.15625 -0.03125 C 1.125 -0.0820312 1.097656 -0.125 1.078125 -0.15625 C 1.054688 -0.195312 1.03125 -0.238281 1 -0.28125 L 0.515625 -1.0625 C 0.484375 -1.101562 0.453125 -1.144531 0.421875 -1.1875 C 0.398438 -1.238281 0.367188 -1.285156 0.328125 -1.328125 L 0.34375 -0.140625 C 0.34375 -0.117188 0.34375 -0.101562 0.34375 -0.09375 C 0.351562 -0.09375 0.375 -0.09375 0.40625 -0.09375 L 0.5625 -0.09375 L 0.5625 -0.03125 L 0.0625 -0.03125 L 0.0625 -0.09375 L 0.1875 -0.09375 C 0.21875 -0.09375 0.238281 -0.09375 0.25 -0.09375 C 0.257812 -0.101562 0.265625 -0.117188 0.265625 -0.140625 L 0.265625 -1.421875 C 0.242188 -1.421875 0.21875 -1.421875 0.1875 -1.421875 C 0.15625 -1.429688 0.113281 -1.4375 0.0625 -1.4375 L 0.0625 -1.484375 C 0.0820312 -1.484375 0.101562 -1.484375 0.125 -1.484375 C 0.15625 -1.484375 0.179688 -1.484375 0.203125 -1.484375 L 0.421875 -1.484375 C 0.453125 -1.484375 0.476562 -1.484375 0.5 -1.484375 C 0.519531 -1.484375 0.546875 -1.484375 0.578125 -1.484375 L 1.234375 -0.4375 L 1.234375 -1.359375 C 1.234375 -1.390625 1.226562 -1.410156 1.21875 -1.421875 C 1.21875 -1.429688 1.203125 -1.4375 1.171875 -1.4375 L 1.015625 -1.4375 L 1.015625 -1.484375 L 1.53125 -1.484375 Z M 1.53125 -1.4375 "/></g></g></g></g><g fill="#f8f9f0" fill-opacity="1"><g transform="translate(13.426802, 1.820403)"><g/></g></g><g clip-path="url(#c2ee8627c7)"><g fill="#f8f9f0" fill-opacity="1"><g transform="translate(14.237773, 1.820403)"><g><path d="M 1.21875 -1.390625 L 1.265625 -1.46875 L 1.3125 -1.46875 C 1.3125 -1.425781 1.304688 -1.378906 1.296875 -1.328125 C 1.296875 -1.285156 1.296875 -1.242188 1.296875 -1.203125 C 1.296875 -1.160156 1.296875 -1.117188 1.296875 -1.078125 C 1.296875 -1.046875 1.296875 -1.015625 1.296875 -0.984375 L 1.234375 -0.984375 C 1.234375 -1.054688 1.226562 -1.113281 1.21875 -1.15625 C 1.207031 -1.207031 1.191406 -1.253906 1.171875 -1.296875 C 1.140625 -1.335938 1.09375 -1.375 1.03125 -1.40625 C 0.976562 -1.4375 0.921875 -1.453125 0.859375 -1.453125 C 0.796875 -1.453125 0.726562 -1.429688 0.65625 -1.390625 C 0.59375 -1.359375 0.546875 -1.316406 0.515625 -1.265625 C 0.484375 -1.203125 0.457031 -1.125 0.4375 -1.03125 C 0.414062 -0.945312 0.40625 -0.851562 0.40625 -0.75 C 0.40625 -0.539062 0.441406 -0.382812 0.515625 -0.28125 C 0.546875 -0.21875 0.59375 -0.164062 0.65625 -0.125 C 0.726562 -0.09375 0.800781 -0.078125 0.875 -0.078125 C 0.9375 -0.078125 0.992188 -0.09375 1.046875 -0.125 C 1.109375 -0.15625 1.15625 -0.191406 1.1875 -0.234375 C 1.207031 -0.273438 1.222656 -0.320312 1.234375 -0.375 C 1.253906 -0.425781 1.269531 -0.488281 1.28125 -0.5625 L 1.328125 -0.5625 C 1.316406 -0.425781 1.3125 -0.328125 1.3125 -0.265625 C 1.3125 -0.234375 1.3125 -0.195312 1.3125 -0.15625 C 1.320312 -0.125 1.328125 -0.09375 1.328125 -0.0625 L 1.28125 -0.046875 L 1.21875 -0.125 C 1.164062 -0.09375 1.117188 -0.0664062 1.078125 -0.046875 C 1.035156 -0.0351562 0.992188 -0.0234375 0.953125 -0.015625 C 0.910156 -0.00390625 0.863281 0 0.8125 0 C 0.664062 0 0.535156 -0.03125 0.421875 -0.09375 C 0.316406 -0.15625 0.234375 -0.238281 0.171875 -0.34375 C 0.109375 -0.457031 0.078125 -0.585938 0.078125 -0.734375 C 0.078125 -0.847656 0.09375 -0.953125 0.125 -1.046875 C 0.164062 -1.140625 0.21875 -1.222656 0.28125 -1.296875 C 0.34375 -1.367188 0.414062 -1.421875 0.5 -1.453125 C 0.59375 -1.492188 0.691406 -1.515625 0.796875 -1.515625 C 0.960938 -1.515625 1.101562 -1.472656 1.21875 -1.390625 Z M 1.21875 -1.390625 "/></g></g></g></g><g clip-path="url(#2eb9d2688a)"><g fill="#f8f9f0" fill-opacity="1"><g transform="translate(15.659968, 1.820403)"><g><path d="M 0.796875 -1.515625 C 0.898438 -1.515625 0.992188 -1.492188 1.078125 -1.453125 C 1.171875 -1.410156 1.25 -1.351562 1.3125 -1.28125 C 1.382812 -1.21875 1.441406 -1.140625 1.484375 -1.046875 C 1.523438 -0.953125 1.546875 -0.851562 1.546875 -0.75 C 1.546875 -0.644531 1.523438 -0.546875 1.484375 -0.453125 C 1.441406 -0.367188 1.382812 -0.289062 1.3125 -0.21875 C 1.25 -0.15625 1.171875 -0.101562 1.078125 -0.0625 C 0.992188 -0.0195312 0.898438 0 0.796875 0 C 0.703125 0 0.609375 -0.0195312 0.515625 -0.0625 C 0.429688 -0.101562 0.351562 -0.15625 0.28125 -0.21875 C 0.21875 -0.289062 0.164062 -0.367188 0.125 -0.453125 C 0.09375 -0.546875 0.078125 -0.644531 0.078125 -0.75 C 0.078125 -0.851562 0.09375 -0.953125 0.125 -1.046875 C 0.164062 -1.140625 0.21875 -1.21875 0.28125 -1.28125 C 0.351562 -1.351562 0.429688 -1.410156 0.515625 -1.453125 C 0.597656 -1.492188 0.691406 -1.515625 0.796875 -1.515625 Z M 0.8125 -0.046875 C 0.90625 -0.046875 0.984375 -0.0820312 1.046875 -0.15625 C 1.078125 -0.195312 1.101562 -0.25 1.125 -0.3125 C 1.15625 -0.382812 1.175781 -0.457031 1.1875 -0.53125 C 1.195312 -0.613281 1.203125 -0.695312 1.203125 -0.78125 C 1.203125 -0.925781 1.1875 -1.046875 1.15625 -1.140625 C 1.125 -1.242188 1.078125 -1.320312 1.015625 -1.375 C 0.960938 -1.4375 0.894531 -1.46875 0.8125 -1.46875 C 0.75 -1.46875 0.691406 -1.453125 0.640625 -1.421875 C 0.597656 -1.398438 0.5625 -1.363281 0.53125 -1.3125 C 0.488281 -1.257812 0.457031 -1.1875 0.4375 -1.09375 C 0.414062 -1.007812 0.40625 -0.894531 0.40625 -0.75 C 0.40625 -0.625 0.414062 -0.519531 0.4375 -0.4375 C 0.457031 -0.351562 0.488281 -0.28125 0.53125 -0.21875 C 0.5625 -0.164062 0.601562 -0.125 0.65625 -0.09375 C 0.707031 -0.0625 0.757812 -0.046875 0.8125 -0.046875 Z M 0.8125 -0.046875 "/></g></g></g></g><g clip-path="url(#10afdd8217)"><g fill="#f8f9f0" fill-opacity="1"><g transform="translate(17.279911, 1.820403)"><g><path d="M 0.0625 -0.03125 L 0.0625 -0.078125 L 0.28125 -0.09375 L 0.28125 -1.4375 L 0.0625 -1.4375 L 0.0625 -1.484375 L 0.78125 -1.484375 L 0.78125 -1.4375 L 0.5625 -1.4375 L 0.5625 -0.109375 L 0.75 -0.109375 C 0.96875 -0.109375 1.101562 -0.148438 1.15625 -0.234375 C 1.175781 -0.265625 1.191406 -0.300781 1.203125 -0.34375 C 1.210938 -0.394531 1.222656 -0.460938 1.234375 -0.546875 L 1.296875 -0.546875 C 1.285156 -0.441406 1.273438 -0.347656 1.265625 -0.265625 C 1.265625 -0.191406 1.265625 -0.113281 1.265625 -0.03125 C 1.097656 -0.03125 0.953125 -0.03125 0.828125 -0.03125 C 0.710938 -0.03125 0.597656 -0.03125 0.484375 -0.03125 C 0.398438 -0.03125 0.320312 -0.03125 0.25 -0.03125 C 0.175781 -0.03125 0.113281 -0.03125 0.0625 -0.03125 Z M 0.0625 -0.03125 "/></g></g></g></g><g clip-path="url(#f05af7489f)"><g fill="#f8f9f0" fill-opacity="1"><g transform="translate(18.612221, 1.820403)"><g><path d="M 0.796875 -1.515625 C 0.898438 -1.515625 0.992188 -1.492188 1.078125 -1.453125 C 1.171875 -1.410156 1.25 -1.351562 1.3125 -1.28125 C 1.382812 -1.21875 1.441406 -1.140625 1.484375 -1.046875 C 1.523438 -0.953125 1.546875 -0.851562 1.546875 -0.75 C 1.546875 -0.644531 1.523438 -0.546875 1.484375 -0.453125 C 1.441406 -0.367188 1.382812 -0.289062 1.3125 -0.21875 C 1.25 -0.15625 1.171875 -0.101562 1.078125 -0.0625 C 0.992188 -0.0195312 0.898438 0 0.796875 0 C 0.703125 0 0.609375 -0.0195312 0.515625 -0.0625 C 0.429688 -0.101562 0.351562 -0.15625 0.28125 -0.21875 C 0.21875 -0.289062 0.164062 -0.367188 0.125 -0.453125 C 0.09375 -0.546875 0.078125 -0.644531 0.078125 -0.75 C 0.078125 -0.851562 0.09375 -0.953125 0.125 -1.046875 C 0.164062 -1.140625 0.21875 -1.21875 0.28125 -1.28125 C 0.351562 -1.351562 0.429688 -1.410156 0.515625 -1.453125 C 0.597656 -1.492188 0.691406 -1.515625 0.796875 -1.515625 Z M 0.8125 -0.046875 C 0.90625 -0.046875 0.984375 -0.0820312 1.046875 -0.15625 C 1.078125 -0.195312 1.101562 -0.25 1.125 -0.3125 C 1.15625 -0.382812 1.175781 -0.457031 1.1875 -0.53125 C 1.195312 -0.613281 1.203125 -0.695312 1.203125 -0.78125 C 1.203125 -0.925781 1.1875 -1.046875 1.15625 -1.140625 C 1.125 -1.242188 1.078125 -1.320312 1.015625 -1.375 C 0.960938 -1.4375 0.894531 -1.46875 0.8125 -1.46875 C 0.75 -1.46875 0.691406 -1.453125 0.640625 -1.421875 C 0.597656 -1.398438 0.5625 -1.363281 0.53125 -1.3125 C 0.488281 -1.257812 0.457031 -1.1875 0.4375 -1.09375 C 0.414062 -1.007812 0.40625 -0.894531 0.40625 -0.75 C 0.40625 -0.625 0.414062 -0.519531 0.4375 -0.4375 C 0.457031 -0.351562 0.488281 -0.28125 0.53125 -0.21875 C 0.5625 -0.164062 0.601562 -0.125 0.65625 -0.09375 C 0.707031 -0.0625 0.757812 -0.046875 0.8125 -0.046875 Z M 0.8125 -0.046875 "/></g></g></g></g><g clip-path="url(#7fdf7b2f29)"><g fill="#f8f9f0" fill-opacity="1"><g transform="translate(20.232164, 1.820403)"><g><path d="M 1.4375 -0.109375 L 1.4375 -0.046875 C 1.375 -0.0234375 1.3125 -0.015625 1.25 -0.015625 C 1.144531 -0.015625 1.066406 -0.046875 1.015625 -0.109375 C 1.003906 -0.128906 0.992188 -0.148438 0.984375 -0.171875 C 0.972656 -0.191406 0.96875 -0.21875 0.96875 -0.25 C 0.96875 -0.28125 0.960938 -0.320312 0.953125 -0.375 C 0.953125 -0.445312 0.945312 -0.5 0.9375 -0.53125 C 0.925781 -0.5625 0.914062 -0.59375 0.90625 -0.625 C 0.882812 -0.664062 0.851562 -0.695312 0.8125 -0.71875 C 0.78125 -0.738281 0.742188 -0.75 0.703125 -0.75 L 0.5625 -0.75 L 0.5625 -0.09375 L 0.765625 -0.09375 L 0.765625 -0.03125 L 0.0625 -0.03125 L 0.0625 -0.09375 L 0.265625 -0.09375 C 0.265625 -0.175781 0.265625 -0.253906 0.265625 -0.328125 L 0.265625 -1.421875 L 0.078125 -1.4375 L 0.078125 -1.484375 C 0.109375 -1.484375 0.140625 -1.484375 0.171875 -1.484375 C 0.210938 -1.484375 0.25 -1.484375 0.28125 -1.484375 C 0.351562 -1.484375 0.414062 -1.484375 0.46875 -1.484375 C 0.519531 -1.484375 0.570312 -1.484375 0.625 -1.484375 C 0.675781 -1.492188 0.734375 -1.5 0.796875 -1.5 C 0.878906 -1.5 0.945312 -1.488281 1 -1.46875 C 1.0625 -1.445312 1.113281 -1.414062 1.15625 -1.375 C 1.21875 -1.3125 1.25 -1.234375 1.25 -1.140625 C 1.25 -1.066406 1.226562 -1.003906 1.1875 -0.953125 C 1.15625 -0.898438 1.101562 -0.859375 1.03125 -0.828125 C 1.007812 -0.816406 0.988281 -0.804688 0.96875 -0.796875 C 0.945312 -0.796875 0.921875 -0.789062 0.890625 -0.78125 C 0.867188 -0.78125 0.835938 -0.78125 0.796875 -0.78125 C 0.867188 -0.769531 0.925781 -0.753906 0.96875 -0.734375 C 1.007812 -0.722656 1.050781 -0.707031 1.09375 -0.6875 C 1.125 -0.664062 1.148438 -0.640625 1.171875 -0.609375 C 1.191406 -0.585938 1.207031 -0.550781 1.21875 -0.5 C 1.226562 -0.457031 1.234375 -0.40625 1.234375 -0.34375 C 1.234375 -0.28125 1.234375 -0.234375 1.234375 -0.203125 C 1.242188 -0.179688 1.253906 -0.160156 1.265625 -0.140625 C 1.273438 -0.109375 1.300781 -0.09375 1.34375 -0.09375 C 1.351562 -0.09375 1.363281 -0.09375 1.375 -0.09375 C 1.382812 -0.09375 1.40625 -0.0976562 1.4375 -0.109375 Z M 0.5625 -0.8125 L 0.6875 -0.8125 C 0.78125 -0.8125 0.851562 -0.835938 0.90625 -0.890625 C 0.957031 -0.953125 0.984375 -1.03125 0.984375 -1.125 C 0.984375 -1.332031 0.875 -1.4375 0.65625 -1.4375 C 0.632812 -1.4375 0.613281 -1.4375 0.59375 -1.4375 C 0.582031 -1.4375 0.570312 -1.429688 0.5625 -1.421875 C 0.5625 -1.421875 0.5625 -1.414062 0.5625 -1.40625 C 0.5625 -1.394531 0.5625 -1.378906 0.5625 -1.359375 Z M 0.5625 -0.8125 "/></g></g></g></g><g fill="#f8f9f0" fill-opacity="1"><g transform="translate(7.135263, 4.561349)"><g><path d="M 0.796875 -1.515625 C 0.898438 -1.515625 0.992188 -1.492188 1.078125 -1.453125 C 1.171875 -1.410156 1.25 -1.351562 1.3125 -1.28125 C 1.382812 -1.21875 1.441406 -1.140625 1.484375 -1.046875 C 1.523438 -0.953125 1.546875 -0.851562 1.546875 -0.75 C 1.546875 -0.644531 1.523438 -0.546875 1.484375 -0.453125 C 1.441406 -0.367188 1.382812 -0.289062 1.3125 -0.21875 C 1.25 -0.15625 1.171875 -0.101562 1.078125 -0.0625 C 0.992188 -0.0195312 0.898438 0 0.796875 0 C 0.703125 0 0.609375 -0.0195312 0.515625 -0.0625 C 0.429688 -0.101562 0.351562 -0.15625 0.28125 -0.21875 C 0.21875 -0.289062 0.164062 -0.367188 0.125 -0.453125 C 0.09375 -0.546875 0.078125 -0.644531 0.078125 -0.75 C 0.078125 -0.851562 0.09375 -0.953125 0.125 -1.046875 C 0.164062 -1.140625 0.21875 -1.21875 0.28125 -1.28125 C 0.351562 -1.351562 0.429688 -1.410156 0.515625 -1.453125 C 0.597656 -1.492188 0.691406 -1.515625 0.796875 -1.515625 Z M 0.8125 -0.046875 C 0.90625 -0.046875 0.984375 -0.0820312 1.046875 -0.15625 C 1.078125 -0.195312 1.101562 -0.25 1.125 -0.3125 C 1.15625 -0.382812 1.175781 -0.457031 1.1875 -0.53125 C 1.195312 -0.613281 1.203125 -0.695312 1.203125 -0.78125 C 1.203125 -0.925781 1.1875 -1.046875 1.15625 -1.140625 C 1.125 -1.242188 1.078125 -1.320312 1.015625 -1.375 C 0.960938 -1.4375 0.894531 -1.46875 0.8125 -1.46875 C 0.75 -1.46875 0.691406 -1.453125 0.640625 -1.421875 C 0.597656 -1.398438 0.5625 -1.363281 0.53125 -1.3125 C 0.488281 -1.257812 0.457031 -1.1875 0.4375 -1.09375 C 0.414062 -1.007812 0.40625 -0.894531 0.40625 -0.75 C 0.40625 -0.625 0.414062 -0.519531 0.4375 -0.4375 C 0.457031 -0.351562 0.488281 -0.28125 0.53125 -0.21875 C 0.5625 -0.164062 0.601562 -0.125 0.65625 -0.09375 C 0.707031 -0.0625 0.757812 -0.046875 0.8125 -0.046875 Z M 0.8125 -0.046875 "/></g></g></g><g fill="#f8f9f0" fill-opacity="1"><g transform="translate(8.755206, 4.561349)"><g><path d="M 0.0625 -0.03125 L 0.0625 -0.078125 L 0.265625 -0.09375 L 0.265625 -1.421875 L 0.0625 -1.4375 L 0.0625 -1.484375 C 0.125 -1.484375 0.171875 -1.484375 0.203125 -1.484375 C 0.242188 -1.484375 0.28125 -1.484375 0.3125 -1.484375 C 0.394531 -1.484375 0.476562 -1.484375 0.5625 -1.484375 C 0.65625 -1.492188 0.734375 -1.5 0.796875 -1.5 C 0.867188 -1.5 0.925781 -1.492188 0.96875 -1.484375 C 1.019531 -1.472656 1.066406 -1.457031 1.109375 -1.4375 C 1.148438 -1.414062 1.179688 -1.378906 1.203125 -1.328125 C 1.234375 -1.273438 1.25 -1.222656 1.25 -1.171875 C 1.25 -1.097656 1.226562 -1.035156 1.1875 -0.984375 C 1.15625 -0.929688 1.109375 -0.890625 1.046875 -0.859375 C 1.015625 -0.847656 0.976562 -0.835938 0.9375 -0.828125 C 0.90625 -0.816406 0.851562 -0.804688 0.78125 -0.796875 C 0.84375 -0.796875 0.894531 -0.789062 0.9375 -0.78125 C 0.976562 -0.78125 1.007812 -0.773438 1.03125 -0.765625 C 1.0625 -0.753906 1.09375 -0.742188 1.125 -0.734375 C 1.25 -0.671875 1.3125 -0.570312 1.3125 -0.4375 C 1.3125 -0.363281 1.289062 -0.296875 1.25 -0.234375 C 1.21875 -0.179688 1.175781 -0.140625 1.125 -0.109375 C 1.09375 -0.0859375 1.054688 -0.0703125 1.015625 -0.0625 C 0.984375 -0.0507812 0.945312 -0.0390625 0.90625 -0.03125 C 0.863281 -0.03125 0.8125 -0.03125 0.75 -0.03125 C 0.695312 -0.03125 0.640625 -0.03125 0.578125 -0.03125 C 0.523438 -0.03125 0.472656 -0.03125 0.421875 -0.03125 C 0.378906 -0.03125 0.332031 -0.03125 0.28125 -0.03125 C 0.238281 -0.03125 0.195312 -0.03125 0.15625 -0.03125 C 0.113281 -0.03125 0.0820312 -0.03125 0.0625 -0.03125 Z M 0.546875 -0.09375 L 0.609375 -0.09375 C 0.679688 -0.09375 0.734375 -0.09375 0.765625 -0.09375 C 0.804688 -0.101562 0.84375 -0.113281 0.875 -0.125 C 0.925781 -0.144531 0.960938 -0.1875 0.984375 -0.25 C 1.015625 -0.3125 1.03125 -0.375 1.03125 -0.4375 C 1.03125 -0.488281 1.019531 -0.535156 1 -0.578125 C 0.988281 -0.617188 0.96875 -0.65625 0.9375 -0.6875 C 0.914062 -0.707031 0.878906 -0.722656 0.828125 -0.734375 C 0.773438 -0.753906 0.71875 -0.765625 0.65625 -0.765625 L 0.546875 -0.765625 Z M 0.546875 -1.4375 L 0.546875 -0.828125 L 0.65625 -0.828125 C 0.75 -0.828125 0.832031 -0.859375 0.90625 -0.921875 C 0.957031 -0.972656 0.984375 -1.050781 0.984375 -1.15625 C 0.984375 -1.21875 0.972656 -1.269531 0.953125 -1.3125 C 0.929688 -1.351562 0.90625 -1.382812 0.875 -1.40625 C 0.832031 -1.425781 0.773438 -1.4375 0.703125 -1.4375 C 0.691406 -1.4375 0.671875 -1.4375 0.640625 -1.4375 C 0.609375 -1.4375 0.578125 -1.4375 0.546875 -1.4375 Z M 0.546875 -1.4375 "/></g></g></g><g fill="#f8f9f0" fill-opacity="1"><g transform="translate(10.145441, 4.561349)"><g><path d="M 0 -0.03125 L 0 -0.09375 L 0.109375 -0.09375 C 0.140625 -0.09375 0.164062 -0.0976562 0.1875 -0.109375 C 0.1875 -0.117188 0.195312 -0.148438 0.21875 -0.203125 C 0.238281 -0.253906 0.257812 -0.320312 0.28125 -0.40625 L 0.5 -1.046875 C 0.519531 -1.140625 0.539062 -1.222656 0.5625 -1.296875 C 0.582031 -1.367188 0.601562 -1.441406 0.625 -1.515625 L 0.78125 -1.515625 C 0.789062 -1.441406 0.804688 -1.375 0.828125 -1.3125 C 0.847656 -1.257812 0.867188 -1.207031 0.890625 -1.15625 L 1.078125 -0.578125 C 1.109375 -0.492188 1.140625 -0.410156 1.171875 -0.328125 C 1.203125 -0.242188 1.226562 -0.164062 1.25 -0.09375 L 1.4375 -0.09375 L 1.4375 -0.03125 L 0.734375 -0.03125 L 0.734375 -0.09375 L 0.9375 -0.09375 L 0.796875 -0.546875 L 0.40625 -0.546875 L 0.34375 -0.34375 C 0.320312 -0.28125 0.304688 -0.234375 0.296875 -0.203125 C 0.296875 -0.171875 0.289062 -0.148438 0.28125 -0.140625 C 0.28125 -0.128906 0.28125 -0.117188 0.28125 -0.109375 C 0.28125 -0.0976562 0.296875 -0.09375 0.328125 -0.09375 L 0.46875 -0.09375 L 0.46875 -0.03125 Z M 0.421875 -0.609375 L 0.765625 -0.609375 L 0.59375 -1.171875 Z M 0.421875 -0.609375 "/></g></g></g><g fill="#f8f9f0" fill-opacity="1"><g transform="translate(11.565639, 4.561349)"><g><path d="M 0.0625 -0.03125 L 0.0625 -0.09375 L 0.203125 -0.09375 C 0.242188 -0.09375 0.265625 -0.109375 0.265625 -0.140625 L 0.28125 -1.421875 C 0.257812 -1.421875 0.238281 -1.421875 0.21875 -1.421875 C 0.207031 -1.429688 0.191406 -1.4375 0.171875 -1.4375 C 0.148438 -1.4375 0.117188 -1.4375 0.078125 -1.4375 L 0.078125 -1.484375 L 0.34375 -1.484375 C 0.382812 -1.484375 0.425781 -1.484375 0.46875 -1.484375 C 0.507812 -1.484375 0.554688 -1.484375 0.609375 -1.484375 L 0.921875 -0.5 L 1.140625 -1.09375 C 1.148438 -1.113281 1.160156 -1.132812 1.171875 -1.15625 C 1.179688 -1.1875 1.191406 -1.226562 1.203125 -1.28125 C 1.222656 -1.332031 1.242188 -1.398438 1.265625 -1.484375 C 1.296875 -1.484375 1.320312 -1.484375 1.34375 -1.484375 C 1.375 -1.484375 1.398438 -1.484375 1.421875 -1.484375 L 1.78125 -1.484375 L 1.78125 -1.4375 L 1.578125 -1.421875 L 1.578125 -0.09375 L 1.78125 -0.09375 L 1.78125 -0.03125 L 1.09375 -0.03125 L 1.09375 -0.09375 L 1.296875 -0.09375 L 1.296875 -1.390625 C 1.273438 -1.328125 1.253906 -1.257812 1.234375 -1.1875 C 1.210938 -1.125 1.195312 -1.066406 1.1875 -1.015625 L 0.921875 -0.28125 C 0.910156 -0.25 0.898438 -0.21875 0.890625 -0.1875 C 0.878906 -0.15625 0.867188 -0.101562 0.859375 -0.03125 L 0.796875 -0.03125 C 0.773438 -0.101562 0.753906 -0.160156 0.734375 -0.203125 C 0.722656 -0.242188 0.710938 -0.28125 0.703125 -0.3125 L 0.46875 -1.03125 C 0.445312 -1.082031 0.425781 -1.140625 0.40625 -1.203125 C 0.382812 -1.265625 0.363281 -1.335938 0.34375 -1.421875 L 0.34375 -0.140625 C 0.34375 -0.117188 0.347656 -0.101562 0.359375 -0.09375 C 0.367188 -0.09375 0.382812 -0.09375 0.40625 -0.09375 L 0.546875 -0.09375 L 0.546875 -0.03125 Z M 0.0625 -0.03125 "/></g></g></g><g fill="#f8f9f0" fill-opacity="1"><g transform="translate(13.441258, 4.561349)"><g><path d="M 0 -0.03125 L 0 -0.09375 L 0.109375 -0.09375 C 0.140625 -0.09375 0.164062 -0.0976562 0.1875 -0.109375 C 0.1875 -0.117188 0.195312 -0.148438 0.21875 -0.203125 C 0.238281 -0.253906 0.257812 -0.320312 0.28125 -0.40625 L 0.5 -1.046875 C 0.519531 -1.140625 0.539062 -1.222656 0.5625 -1.296875 C 0.582031 -1.367188 0.601562 -1.441406 0.625 -1.515625 L 0.78125 -1.515625 C 0.789062 -1.441406 0.804688 -1.375 0.828125 -1.3125 C 0.847656 -1.257812 0.867188 -1.207031 0.890625 -1.15625 L 1.078125 -0.578125 C 1.109375 -0.492188 1.140625 -0.410156 1.171875 -0.328125 C 1.203125 -0.242188 1.226562 -0.164062 1.25 -0.09375 L 1.4375 -0.09375 L 1.4375 -0.03125 L 0.734375 -0.03125 L 0.734375 -0.09375 L 0.9375 -0.09375 L 0.796875 -0.546875 L 0.40625 -0.546875 L 0.34375 -0.34375 C 0.320312 -0.28125 0.304688 -0.234375 0.296875 -0.203125 C 0.296875 -0.171875 0.289062 -0.148438 0.28125 -0.140625 C 0.28125 -0.128906 0.28125 -0.117188 0.28125 -0.109375 C 0.28125 -0.0976562 0.296875 -0.09375 0.328125 -0.09375 L 0.46875 -0.09375 L 0.46875 -0.03125 Z M 0.421875 -0.609375 L 0.765625 -0.609375 L 0.59375 -1.171875 Z M 0.421875 -0.609375 "/></g></g></g></g></g></g>
</svg>